%TF.GenerationSoftware,KiCad,Pcbnew,8.0.8*%
%TF.CreationDate,2025-03-25T11:50:14+11:00*%
%TF.ProjectId,STM32BMS,53544d33-3242-44d5-932e-6b696361645f,rev?*%
%TF.SameCoordinates,Original*%
%TF.FileFunction,Copper,L2,Bot*%
%TF.FilePolarity,Positive*%
%FSLAX46Y46*%
G04 Gerber Fmt 4.6, Leading zero omitted, Abs format (unit mm)*
G04 Created by KiCad (PCBNEW 8.0.8) date 2025-03-25 11:50:14*
%MOMM*%
%LPD*%
G01*
G04 APERTURE LIST*
%TA.AperFunction,ComponentPad*%
%ADD10R,1.700000X1.700000*%
%TD*%
%TA.AperFunction,ComponentPad*%
%ADD11O,1.700000X1.700000*%
%TD*%
%TA.AperFunction,ComponentPad*%
%ADD12R,2.200000X2.200000*%
%TD*%
%TA.AperFunction,ComponentPad*%
%ADD13O,2.200000X2.200000*%
%TD*%
%TA.AperFunction,ComponentPad*%
%ADD14R,1.050000X1.500000*%
%TD*%
%TA.AperFunction,ComponentPad*%
%ADD15O,1.050000X1.500000*%
%TD*%
%TA.AperFunction,HeatsinkPad*%
%ADD16O,1.800000X1.150000*%
%TD*%
%TA.AperFunction,HeatsinkPad*%
%ADD17O,2.000000X1.450000*%
%TD*%
%TA.AperFunction,ComponentPad*%
%ADD18R,1.905000X2.000000*%
%TD*%
%TA.AperFunction,ComponentPad*%
%ADD19O,1.905000X2.000000*%
%TD*%
%TA.AperFunction,ComponentPad*%
%ADD20R,2.000000X1.905000*%
%TD*%
%TA.AperFunction,ComponentPad*%
%ADD21O,2.000000X1.905000*%
%TD*%
%TA.AperFunction,ViaPad*%
%ADD22C,0.600000*%
%TD*%
%TA.AperFunction,ViaPad*%
%ADD23C,0.700000*%
%TD*%
%TA.AperFunction,Conductor*%
%ADD24C,0.500000*%
%TD*%
G04 APERTURE END LIST*
D10*
%TO.P,BT1,1,1*%
%TO.N,Net-(Q1-D)*%
X94800000Y-111200000D03*
D11*
%TO.P,BT1,2,2*%
%TO.N,Net-(BT1-Pad2)*%
X94800000Y-113740000D03*
%TD*%
D12*
%TO.P,D2,1,K*%
%TO.N,Net-(D2-K)*%
X112920000Y-126200000D03*
D13*
%TO.P,D2,2,A*%
%TO.N,VBUS*%
X123080000Y-126200000D03*
%TD*%
D14*
%TO.P,U4,1,VCC*%
%TO.N,+3.3V*%
X109260000Y-105800000D03*
D15*
%TO.P,U4,2,GND*%
%TO.N,GND*%
X110530000Y-105800000D03*
%TO.P,U4,3,OUT*%
%TO.N,Net-(U4-OUT)*%
X111800000Y-105800000D03*
%TD*%
D16*
%TO.P,J1,6,Shield*%
%TO.N,unconnected-(J1-Shield-Pad6)_1*%
X159395000Y-107480000D03*
D17*
%TO.N,unconnected-(J1-Shield-Pad6)_3*%
X155595000Y-107330000D03*
%TO.N,unconnected-(J1-Shield-Pad6)_2*%
X155595000Y-99880000D03*
D16*
%TO.N,unconnected-(J1-Shield-Pad6)*%
X159395000Y-99730000D03*
%TD*%
D18*
%TO.P,Q3,1,G*%
%TO.N,Net-(Q3-G)*%
X116000000Y-136600000D03*
D19*
%TO.P,Q3,2,D*%
%TO.N,Net-(J4-Pin_2)*%
X113460000Y-136600000D03*
%TO.P,Q3,3,S*%
%TO.N,Net-(Q1-D)*%
X110920000Y-136600000D03*
%TD*%
D20*
%TO.P,Q1,1,G*%
%TO.N,Net-(Q1-G)*%
X112600000Y-97600000D03*
D21*
%TO.P,Q1,2,D*%
%TO.N,Net-(Q1-D)*%
X112600000Y-95060000D03*
%TO.P,Q1,3,S*%
%TO.N,GND*%
X112600000Y-92520000D03*
%TD*%
D10*
%TO.P,J4,1,Pin_1*%
%TO.N,Net-(D2-K)*%
X119675000Y-131000000D03*
D11*
%TO.P,J4,2,Pin_2*%
%TO.N,Net-(J4-Pin_2)*%
X117135000Y-131000000D03*
%TD*%
D10*
%TO.P,J2,1,Pin_1*%
%TO.N,+3.3V*%
X150620000Y-95400000D03*
D11*
%TO.P,J2,2,Pin_2*%
%TO.N,/SWDIO*%
X148080000Y-95400000D03*
%TO.P,J2,3,Pin_3*%
%TO.N,/SWCLK*%
X145540000Y-95400000D03*
%TO.P,J2,4,Pin_4*%
%TO.N,GND*%
X143000000Y-95400000D03*
%TD*%
D10*
%TO.P,J3,1,Pin_1*%
%TO.N,VBUS*%
X139000000Y-92400000D03*
D11*
%TO.P,J3,2,Pin_2*%
%TO.N,/I2C_SCL*%
X136460000Y-92400000D03*
%TO.P,J3,3,Pin_3*%
%TO.N,/I2C_SDA*%
X133920000Y-92400000D03*
%TO.P,J3,4,Pin_4*%
%TO.N,GND*%
X131380000Y-92400000D03*
%TD*%
D22*
%TO.N,GND*%
X116400000Y-123000000D03*
X149000000Y-108000000D03*
X126000000Y-111400000D03*
X127000000Y-99200000D03*
X118000000Y-105200000D03*
X132539339Y-110352229D03*
X157400000Y-110200000D03*
X156600000Y-102400000D03*
X148600000Y-112600000D03*
X155200000Y-84000000D03*
X153800000Y-112800000D03*
X139000000Y-110400000D03*
X144200000Y-102800000D03*
X112600000Y-90800000D03*
X124600000Y-104200000D03*
X133200000Y-97000000D03*
X123000000Y-101200000D03*
X149400000Y-113000000D03*
X151600000Y-123000000D03*
X149000000Y-108800000D03*
X113000000Y-109400000D03*
%TO.N,+3.3V*%
X124735070Y-95264930D03*
X137200000Y-121000000D03*
X152200000Y-91200000D03*
X135900000Y-121000000D03*
X140249620Y-119950380D03*
X150800000Y-89800000D03*
X139330380Y-120869620D03*
X125800000Y-94200000D03*
%TO.N,VBUS*%
X131650994Y-102154974D03*
X128654310Y-97345690D03*
X140550000Y-114800000D03*
X131400000Y-119400000D03*
X138700000Y-117400000D03*
X137400000Y-117800000D03*
X137200000Y-118400000D03*
X128335070Y-98864930D03*
X132800000Y-118400000D03*
X135800000Y-118400000D03*
X139050000Y-116162829D03*
X130200000Y-100800000D03*
D23*
%TO.N,Net-(Q1-D)*%
X108800000Y-121165000D03*
X108800000Y-119565000D03*
%TD*%
D24*
%TO.N,+3.3V*%
X140249620Y-119950380D02*
X139330380Y-120869620D01*
X152200000Y-91200000D02*
X150800000Y-89800000D01*
X137200000Y-121000000D02*
X136000000Y-121000000D01*
X125800000Y-94200000D02*
X124735070Y-95264930D01*
X136000000Y-121000000D02*
X135900000Y-121000000D01*
%TO.N,VBUS*%
X128335070Y-97664930D02*
X128654310Y-97345690D01*
X128335070Y-98864930D02*
X128335070Y-97664930D01*
X138700000Y-117400000D02*
X138000000Y-117400000D01*
X138000000Y-117400000D02*
X137600000Y-117800000D01*
X140412829Y-114800000D02*
X139050000Y-116162829D01*
X132400000Y-118400000D02*
X131400000Y-119400000D01*
X137200000Y-118400000D02*
X135800000Y-118400000D01*
X140550000Y-114800000D02*
X140412829Y-114800000D01*
X132800000Y-118400000D02*
X132400000Y-118400000D01*
X130296020Y-100800000D02*
X130200000Y-100800000D01*
X137600000Y-117800000D02*
X137400000Y-117800000D01*
X131650994Y-102154974D02*
X130296020Y-100800000D01*
%TO.N,Net-(Q1-D)*%
X108800000Y-119565000D02*
X108800000Y-121165000D01*
%TD*%
%TA.AperFunction,Conductor*%
%TO.N,GND*%
G36*
X157200733Y-71800008D02*
G01*
X157391077Y-71802343D01*
X157401681Y-71802930D01*
X157781224Y-71840312D01*
X157793249Y-71842096D01*
X158166527Y-71916345D01*
X158178329Y-71919301D01*
X158542544Y-72029785D01*
X158554002Y-72033885D01*
X158905627Y-72179532D01*
X158916626Y-72184734D01*
X159252282Y-72364147D01*
X159262713Y-72370399D01*
X159579169Y-72581849D01*
X159588942Y-72589097D01*
X159883148Y-72830544D01*
X159892165Y-72838717D01*
X160161282Y-73107834D01*
X160169455Y-73116851D01*
X160410902Y-73411057D01*
X160418150Y-73420830D01*
X160629600Y-73737286D01*
X160635856Y-73747724D01*
X160815264Y-74083372D01*
X160820467Y-74094372D01*
X160966114Y-74445997D01*
X160970214Y-74457455D01*
X161080698Y-74821670D01*
X161083654Y-74833474D01*
X161157902Y-75206744D01*
X161159688Y-75218781D01*
X161197068Y-75598304D01*
X161197656Y-75608937D01*
X161199991Y-75799266D01*
X161200000Y-75800787D01*
X161200000Y-147799212D01*
X161199991Y-147800733D01*
X161197656Y-147991062D01*
X161197068Y-148001695D01*
X161159688Y-148381218D01*
X161157902Y-148393255D01*
X161083654Y-148766525D01*
X161080698Y-148778329D01*
X160970214Y-149142544D01*
X160966114Y-149154002D01*
X160820467Y-149505627D01*
X160815264Y-149516627D01*
X160635856Y-149852275D01*
X160629600Y-149862713D01*
X160418150Y-150179169D01*
X160410902Y-150188942D01*
X160169455Y-150483148D01*
X160161282Y-150492165D01*
X159892165Y-150761282D01*
X159883148Y-150769455D01*
X159588942Y-151010902D01*
X159579169Y-151018150D01*
X159262713Y-151229600D01*
X159252275Y-151235856D01*
X158916627Y-151415264D01*
X158905627Y-151420467D01*
X158554003Y-151566114D01*
X158542545Y-151570214D01*
X158436105Y-151602502D01*
X158400457Y-151607841D01*
X93528470Y-151789555D01*
X93515969Y-151788958D01*
X93218781Y-151759688D01*
X93206744Y-151757902D01*
X92833474Y-151683654D01*
X92821670Y-151680698D01*
X92457455Y-151570214D01*
X92445997Y-151566114D01*
X92094372Y-151420467D01*
X92083372Y-151415264D01*
X91747724Y-151235856D01*
X91737286Y-151229600D01*
X91420830Y-151018150D01*
X91411057Y-151010902D01*
X91116851Y-150769455D01*
X91107834Y-150761282D01*
X90838717Y-150492165D01*
X90830544Y-150483148D01*
X90589097Y-150188942D01*
X90581849Y-150179169D01*
X90370399Y-149862713D01*
X90364143Y-149852275D01*
X90184735Y-149516627D01*
X90179532Y-149505627D01*
X90033885Y-149154002D01*
X90029785Y-149142544D01*
X89919301Y-148778329D01*
X89916345Y-148766525D01*
X89899092Y-148679786D01*
X89842096Y-148393249D01*
X89840311Y-148381218D01*
X89802930Y-148001681D01*
X89802343Y-147991075D01*
X89800009Y-147800732D01*
X89800000Y-147799212D01*
X89800000Y-147693713D01*
X92449500Y-147693713D01*
X92449500Y-147906286D01*
X92482753Y-148116239D01*
X92548444Y-148318414D01*
X92644951Y-148507820D01*
X92769890Y-148679786D01*
X92920213Y-148830109D01*
X93092179Y-148955048D01*
X93092181Y-148955049D01*
X93092184Y-148955051D01*
X93281588Y-149051557D01*
X93483757Y-149117246D01*
X93693713Y-149150500D01*
X93693714Y-149150500D01*
X93906286Y-149150500D01*
X93906287Y-149150500D01*
X94116243Y-149117246D01*
X94318412Y-149051557D01*
X94507816Y-148955051D01*
X94529789Y-148939086D01*
X94679786Y-148830109D01*
X94679788Y-148830106D01*
X94679792Y-148830104D01*
X94830104Y-148679792D01*
X94830106Y-148679788D01*
X94830109Y-148679786D01*
X94955048Y-148507820D01*
X94955047Y-148507820D01*
X94955051Y-148507816D01*
X95051557Y-148318412D01*
X95117246Y-148116243D01*
X95150500Y-147906287D01*
X95150500Y-147693713D01*
X155849500Y-147693713D01*
X155849500Y-147906286D01*
X155882753Y-148116239D01*
X155948444Y-148318414D01*
X156044951Y-148507820D01*
X156169890Y-148679786D01*
X156320213Y-148830109D01*
X156492179Y-148955048D01*
X156492181Y-148955049D01*
X156492184Y-148955051D01*
X156681588Y-149051557D01*
X156883757Y-149117246D01*
X157093713Y-149150500D01*
X157093714Y-149150500D01*
X157306286Y-149150500D01*
X157306287Y-149150500D01*
X157516243Y-149117246D01*
X157718412Y-149051557D01*
X157907816Y-148955051D01*
X157929789Y-148939086D01*
X158079786Y-148830109D01*
X158079788Y-148830106D01*
X158079792Y-148830104D01*
X158230104Y-148679792D01*
X158230106Y-148679788D01*
X158230109Y-148679786D01*
X158355048Y-148507820D01*
X158355047Y-148507820D01*
X158355051Y-148507816D01*
X158451557Y-148318412D01*
X158517246Y-148116243D01*
X158550500Y-147906287D01*
X158550500Y-147693713D01*
X158517246Y-147483757D01*
X158451557Y-147281588D01*
X158355051Y-147092184D01*
X158355049Y-147092181D01*
X158355048Y-147092179D01*
X158230109Y-146920213D01*
X158079786Y-146769890D01*
X157907820Y-146644951D01*
X157718414Y-146548444D01*
X157718413Y-146548443D01*
X157718412Y-146548443D01*
X157516243Y-146482754D01*
X157516241Y-146482753D01*
X157516240Y-146482753D01*
X157354957Y-146457208D01*
X157306287Y-146449500D01*
X157093713Y-146449500D01*
X157045042Y-146457208D01*
X156883760Y-146482753D01*
X156681585Y-146548444D01*
X156492179Y-146644951D01*
X156320213Y-146769890D01*
X156169890Y-146920213D01*
X156044951Y-147092179D01*
X155948444Y-147281585D01*
X155882753Y-147483760D01*
X155849500Y-147693713D01*
X95150500Y-147693713D01*
X95117246Y-147483757D01*
X95051557Y-147281588D01*
X94955051Y-147092184D01*
X94955049Y-147092181D01*
X94955048Y-147092179D01*
X94830109Y-146920213D01*
X94679786Y-146769890D01*
X94507820Y-146644951D01*
X94318414Y-146548444D01*
X94318413Y-146548443D01*
X94318412Y-146548443D01*
X94116243Y-146482754D01*
X94116241Y-146482753D01*
X94116240Y-146482753D01*
X93954957Y-146457208D01*
X93906287Y-146449500D01*
X93693713Y-146449500D01*
X93645042Y-146457208D01*
X93483760Y-146482753D01*
X93281585Y-146548444D01*
X93092179Y-146644951D01*
X92920213Y-146769890D01*
X92769890Y-146920213D01*
X92644951Y-147092179D01*
X92548444Y-147281585D01*
X92482753Y-147483760D01*
X92449500Y-147693713D01*
X89800000Y-147693713D01*
X89800000Y-136461757D01*
X109767000Y-136461757D01*
X109767000Y-136738242D01*
X109795391Y-136917496D01*
X109795391Y-136917499D01*
X109851471Y-137090095D01*
X109851473Y-137090098D01*
X109933866Y-137251804D01*
X110040541Y-137398629D01*
X110168871Y-137526959D01*
X110315696Y-137633634D01*
X110403219Y-137678229D01*
X110477404Y-137716028D01*
X110650001Y-137772108D01*
X110650002Y-137772108D01*
X110650005Y-137772109D01*
X110829257Y-137800500D01*
X110829258Y-137800500D01*
X111010742Y-137800500D01*
X111010743Y-137800500D01*
X111189995Y-137772109D01*
X111189998Y-137772108D01*
X111189999Y-137772108D01*
X111362595Y-137716028D01*
X111362595Y-137716027D01*
X111362598Y-137716027D01*
X111524304Y-137633634D01*
X111671129Y-137526959D01*
X111799459Y-137398629D01*
X111906134Y-137251804D01*
X111988527Y-137090098D01*
X112044609Y-136917495D01*
X112067527Y-136772796D01*
X112097456Y-136709662D01*
X112156768Y-136672731D01*
X112226630Y-136673729D01*
X112284863Y-136712339D01*
X112312473Y-136772797D01*
X112335391Y-136917496D01*
X112335391Y-136917499D01*
X112391471Y-137090095D01*
X112391473Y-137090098D01*
X112473866Y-137251804D01*
X112580541Y-137398629D01*
X112708871Y-137526959D01*
X112855696Y-137633634D01*
X112943219Y-137678229D01*
X113017404Y-137716028D01*
X113190001Y-137772108D01*
X113190002Y-137772108D01*
X113190005Y-137772109D01*
X113369257Y-137800500D01*
X113369258Y-137800500D01*
X113550742Y-137800500D01*
X113550743Y-137800500D01*
X113729995Y-137772109D01*
X113729998Y-137772108D01*
X113729999Y-137772108D01*
X113902595Y-137716028D01*
X113902595Y-137716027D01*
X113902598Y-137716027D01*
X114064304Y-137633634D01*
X114211129Y-137526959D01*
X114339459Y-137398629D01*
X114446134Y-137251804D01*
X114528527Y-137090098D01*
X114584609Y-136917495D01*
X114600527Y-136816992D01*
X114630456Y-136753858D01*
X114689768Y-136716927D01*
X114759630Y-136717925D01*
X114817863Y-136756535D01*
X114845977Y-136820498D01*
X114847000Y-136836391D01*
X114847000Y-137619752D01*
X114858631Y-137678229D01*
X114858632Y-137678230D01*
X114902947Y-137744552D01*
X114969269Y-137788867D01*
X114969270Y-137788868D01*
X115027747Y-137800499D01*
X115027750Y-137800500D01*
X115027752Y-137800500D01*
X116972250Y-137800500D01*
X116972251Y-137800499D01*
X116987068Y-137797552D01*
X117030729Y-137788868D01*
X117030729Y-137788867D01*
X117030731Y-137788867D01*
X117097052Y-137744552D01*
X117141367Y-137678231D01*
X117141367Y-137678229D01*
X117141368Y-137678229D01*
X117152999Y-137619752D01*
X117153000Y-137619750D01*
X117153000Y-135580249D01*
X117152999Y-135580247D01*
X117141368Y-135521770D01*
X117141367Y-135521769D01*
X117097052Y-135455447D01*
X117030730Y-135411132D01*
X117030729Y-135411131D01*
X116972252Y-135399500D01*
X116972248Y-135399500D01*
X115027752Y-135399500D01*
X115027747Y-135399500D01*
X114969270Y-135411131D01*
X114969269Y-135411132D01*
X114902947Y-135455447D01*
X114858632Y-135521769D01*
X114858631Y-135521770D01*
X114847000Y-135580247D01*
X114847000Y-136363608D01*
X114827315Y-136430647D01*
X114774511Y-136476402D01*
X114705353Y-136486346D01*
X114641797Y-136457321D01*
X114604023Y-136398543D01*
X114600527Y-136383006D01*
X114599387Y-136375810D01*
X114584609Y-136282505D01*
X114584608Y-136282501D01*
X114584608Y-136282500D01*
X114528528Y-136109904D01*
X114446133Y-135948195D01*
X114339459Y-135801371D01*
X114211129Y-135673041D01*
X114064304Y-135566366D01*
X113902595Y-135483971D01*
X113729998Y-135427891D01*
X113595556Y-135406597D01*
X113550743Y-135399500D01*
X113369257Y-135399500D01*
X113309506Y-135408963D01*
X113190003Y-135427891D01*
X113190000Y-135427891D01*
X113017404Y-135483971D01*
X112855695Y-135566366D01*
X112771926Y-135627228D01*
X112708871Y-135673041D01*
X112708869Y-135673043D01*
X112708868Y-135673043D01*
X112580543Y-135801368D01*
X112580543Y-135801369D01*
X112580541Y-135801371D01*
X112534728Y-135864426D01*
X112473866Y-135948195D01*
X112391471Y-136109904D01*
X112335391Y-136282500D01*
X112335391Y-136282503D01*
X112312473Y-136427202D01*
X112282544Y-136490337D01*
X112223232Y-136527268D01*
X112153370Y-136526270D01*
X112095137Y-136487660D01*
X112067527Y-136427202D01*
X112060527Y-136383006D01*
X112044609Y-136282505D01*
X112044608Y-136282501D01*
X112044608Y-136282500D01*
X111988528Y-136109904D01*
X111906133Y-135948195D01*
X111799459Y-135801371D01*
X111671129Y-135673041D01*
X111524304Y-135566366D01*
X111362595Y-135483971D01*
X111189998Y-135427891D01*
X111055556Y-135406597D01*
X111010743Y-135399500D01*
X110829257Y-135399500D01*
X110769506Y-135408963D01*
X110650003Y-135427891D01*
X110650000Y-135427891D01*
X110477404Y-135483971D01*
X110315695Y-135566366D01*
X110231926Y-135627228D01*
X110168871Y-135673041D01*
X110168869Y-135673043D01*
X110168868Y-135673043D01*
X110040543Y-135801368D01*
X110040543Y-135801369D01*
X110040541Y-135801371D01*
X109994728Y-135864426D01*
X109933866Y-135948195D01*
X109851471Y-136109904D01*
X109795391Y-136282500D01*
X109795391Y-136282503D01*
X109767000Y-136461757D01*
X89800000Y-136461757D01*
X89800000Y-131000000D01*
X116079417Y-131000000D01*
X116099699Y-131205932D01*
X116099700Y-131205934D01*
X116159768Y-131403954D01*
X116257315Y-131586450D01*
X116257317Y-131586452D01*
X116388589Y-131746410D01*
X116485209Y-131825702D01*
X116548550Y-131877685D01*
X116731046Y-131975232D01*
X116929066Y-132035300D01*
X116929065Y-132035300D01*
X116947529Y-132037118D01*
X117135000Y-132055583D01*
X117340934Y-132035300D01*
X117538954Y-131975232D01*
X117721450Y-131877685D01*
X117881410Y-131746410D01*
X118012685Y-131586450D01*
X118110232Y-131403954D01*
X118170300Y-131205934D01*
X118190583Y-131000000D01*
X118170300Y-130794066D01*
X118110232Y-130596046D01*
X118012685Y-130413550D01*
X117960702Y-130350209D01*
X117881410Y-130253589D01*
X117731121Y-130130252D01*
X117731115Y-130130247D01*
X118624500Y-130130247D01*
X118624500Y-131869752D01*
X118636131Y-131928229D01*
X118636132Y-131928230D01*
X118680447Y-131994552D01*
X118746769Y-132038867D01*
X118746770Y-132038868D01*
X118805247Y-132050499D01*
X118805250Y-132050500D01*
X118805252Y-132050500D01*
X120544750Y-132050500D01*
X120544751Y-132050499D01*
X120559568Y-132047552D01*
X120603229Y-132038868D01*
X120603229Y-132038867D01*
X120603231Y-132038867D01*
X120669552Y-131994552D01*
X120713867Y-131928231D01*
X120713867Y-131928229D01*
X120713868Y-131928229D01*
X120725499Y-131869752D01*
X120725500Y-131869750D01*
X120725500Y-130130249D01*
X120725499Y-130130247D01*
X120713868Y-130071770D01*
X120713867Y-130071769D01*
X120669552Y-130005447D01*
X120603230Y-129961132D01*
X120603229Y-129961131D01*
X120544752Y-129949500D01*
X120544748Y-129949500D01*
X118805252Y-129949500D01*
X118805247Y-129949500D01*
X118746770Y-129961131D01*
X118746769Y-129961132D01*
X118680447Y-130005447D01*
X118636132Y-130071769D01*
X118636131Y-130071770D01*
X118624500Y-130130247D01*
X117731115Y-130130247D01*
X117721450Y-130122315D01*
X117538954Y-130024768D01*
X117340934Y-129964700D01*
X117340932Y-129964699D01*
X117340934Y-129964699D01*
X117135000Y-129944417D01*
X116929067Y-129964699D01*
X116731043Y-130024769D01*
X116643114Y-130071769D01*
X116548550Y-130122315D01*
X116548548Y-130122316D01*
X116548547Y-130122317D01*
X116388589Y-130253589D01*
X116257317Y-130413547D01*
X116159769Y-130596043D01*
X116099699Y-130794067D01*
X116079417Y-131000000D01*
X89800000Y-131000000D01*
X89800000Y-125080247D01*
X111619500Y-125080247D01*
X111619500Y-127319752D01*
X111631131Y-127378229D01*
X111631132Y-127378230D01*
X111675447Y-127444552D01*
X111741769Y-127488867D01*
X111741770Y-127488868D01*
X111800247Y-127500499D01*
X111800250Y-127500500D01*
X111800252Y-127500500D01*
X114039750Y-127500500D01*
X114039751Y-127500499D01*
X114054568Y-127497552D01*
X114098229Y-127488868D01*
X114098229Y-127488867D01*
X114098231Y-127488867D01*
X114164552Y-127444552D01*
X114208867Y-127378231D01*
X114208867Y-127378229D01*
X114208868Y-127378229D01*
X114220499Y-127319752D01*
X114220500Y-127319750D01*
X114220500Y-126199998D01*
X121774532Y-126199998D01*
X121774532Y-126200001D01*
X121794364Y-126426686D01*
X121794366Y-126426697D01*
X121853258Y-126646488D01*
X121853261Y-126646497D01*
X121949431Y-126852732D01*
X121949432Y-126852734D01*
X122079954Y-127039141D01*
X122240858Y-127200045D01*
X122240861Y-127200047D01*
X122427266Y-127330568D01*
X122633504Y-127426739D01*
X122853308Y-127485635D01*
X123015230Y-127499801D01*
X123079998Y-127505468D01*
X123080000Y-127505468D01*
X123080002Y-127505468D01*
X123136796Y-127500499D01*
X123306692Y-127485635D01*
X123526496Y-127426739D01*
X123732734Y-127330568D01*
X123919139Y-127200047D01*
X124080047Y-127039139D01*
X124210568Y-126852734D01*
X124306739Y-126646496D01*
X124365635Y-126426692D01*
X124385468Y-126200000D01*
X124365635Y-125973308D01*
X124306739Y-125753504D01*
X124210568Y-125547266D01*
X124080047Y-125360861D01*
X124080045Y-125360858D01*
X123919141Y-125199954D01*
X123732734Y-125069432D01*
X123732732Y-125069431D01*
X123526497Y-124973261D01*
X123526488Y-124973258D01*
X123306697Y-124914366D01*
X123306693Y-124914365D01*
X123306692Y-124914365D01*
X123306691Y-124914364D01*
X123306686Y-124914364D01*
X123080002Y-124894532D01*
X123079998Y-124894532D01*
X122853313Y-124914364D01*
X122853302Y-124914366D01*
X122633511Y-124973258D01*
X122633502Y-124973261D01*
X122427267Y-125069431D01*
X122427265Y-125069432D01*
X122240858Y-125199954D01*
X122079954Y-125360858D01*
X121949432Y-125547265D01*
X121949431Y-125547267D01*
X121853261Y-125753502D01*
X121853258Y-125753511D01*
X121794366Y-125973302D01*
X121794364Y-125973313D01*
X121774532Y-126199998D01*
X114220500Y-126199998D01*
X114220500Y-125080249D01*
X114220499Y-125080247D01*
X114208868Y-125021770D01*
X114208867Y-125021769D01*
X114164552Y-124955447D01*
X114098230Y-124911132D01*
X114098229Y-124911131D01*
X114039752Y-124899500D01*
X114039748Y-124899500D01*
X111800252Y-124899500D01*
X111800247Y-124899500D01*
X111741770Y-124911131D01*
X111741769Y-124911132D01*
X111675447Y-124955447D01*
X111631132Y-125021769D01*
X111631131Y-125021770D01*
X111619500Y-125080247D01*
X89800000Y-125080247D01*
X89800000Y-119565000D01*
X108244750Y-119565000D01*
X108259496Y-119677008D01*
X108263670Y-119708708D01*
X108263671Y-119708712D01*
X108319137Y-119842622D01*
X108319138Y-119842624D01*
X108319139Y-119842625D01*
X108323875Y-119848798D01*
X108349070Y-119913965D01*
X108349500Y-119924284D01*
X108349500Y-120805715D01*
X108329815Y-120872754D01*
X108323877Y-120881200D01*
X108319138Y-120887375D01*
X108263671Y-121021287D01*
X108263670Y-121021291D01*
X108244750Y-121164999D01*
X108244750Y-121165000D01*
X108263670Y-121308708D01*
X108263671Y-121308712D01*
X108319137Y-121442622D01*
X108319138Y-121442624D01*
X108319139Y-121442625D01*
X108407379Y-121557621D01*
X108522375Y-121645861D01*
X108656291Y-121701330D01*
X108783280Y-121718048D01*
X108799999Y-121720250D01*
X108800000Y-121720250D01*
X108800001Y-121720250D01*
X108814977Y-121718278D01*
X108943709Y-121701330D01*
X109077625Y-121645861D01*
X109192621Y-121557621D01*
X109280861Y-121442625D01*
X109336330Y-121308709D01*
X109355250Y-121165000D01*
X109336330Y-121021291D01*
X109327511Y-121000000D01*
X135394353Y-121000000D01*
X135414834Y-121142456D01*
X135425130Y-121165000D01*
X135474623Y-121273373D01*
X135568872Y-121382143D01*
X135689947Y-121459953D01*
X135689950Y-121459954D01*
X135689949Y-121459954D01*
X135828036Y-121500499D01*
X135828038Y-121500500D01*
X135828039Y-121500500D01*
X135971962Y-121500500D01*
X135971962Y-121500499D01*
X136024797Y-121484985D01*
X136118563Y-121457455D01*
X136118995Y-121458926D01*
X136157727Y-121450500D01*
X136942273Y-121450500D01*
X136981004Y-121458926D01*
X136981437Y-121457455D01*
X137128036Y-121500499D01*
X137128038Y-121500500D01*
X137128039Y-121500500D01*
X137271962Y-121500500D01*
X137271962Y-121500499D01*
X137410053Y-121459953D01*
X137531128Y-121382143D01*
X137625377Y-121273373D01*
X137685165Y-121142457D01*
X137705647Y-121000000D01*
X137686901Y-120869620D01*
X138824733Y-120869620D01*
X138845214Y-121012076D01*
X138904758Y-121142456D01*
X138905003Y-121142993D01*
X138999252Y-121251763D01*
X139120327Y-121329573D01*
X139120330Y-121329574D01*
X139120329Y-121329574D01*
X139258416Y-121370119D01*
X139258418Y-121370120D01*
X139258419Y-121370120D01*
X139402342Y-121370120D01*
X139402342Y-121370119D01*
X139540433Y-121329573D01*
X139661508Y-121251763D01*
X139755757Y-121142993D01*
X139798284Y-121049870D01*
X139823391Y-121013710D01*
X140390715Y-120446387D01*
X140443464Y-120415092D01*
X140459673Y-120410333D01*
X140460710Y-120409667D01*
X140580743Y-120332526D01*
X140580742Y-120332526D01*
X140580748Y-120332523D01*
X140674997Y-120223753D01*
X140734785Y-120092837D01*
X140755267Y-119950380D01*
X140734785Y-119807923D01*
X140674997Y-119677007D01*
X140580748Y-119568237D01*
X140459673Y-119490427D01*
X140459671Y-119490426D01*
X140459669Y-119490425D01*
X140459670Y-119490425D01*
X140321583Y-119449880D01*
X140321581Y-119449880D01*
X140177659Y-119449880D01*
X140177656Y-119449880D01*
X140039569Y-119490425D01*
X139918493Y-119568236D01*
X139824243Y-119677006D01*
X139781718Y-119770122D01*
X139756605Y-119806290D01*
X139189285Y-120373610D01*
X139136543Y-120404905D01*
X139120329Y-120409666D01*
X139120325Y-120409668D01*
X138999253Y-120487476D01*
X138905003Y-120596246D01*
X138905002Y-120596248D01*
X138845214Y-120727163D01*
X138824733Y-120869620D01*
X137686901Y-120869620D01*
X137685165Y-120857543D01*
X137625377Y-120726627D01*
X137531128Y-120617857D01*
X137410053Y-120540047D01*
X137410051Y-120540046D01*
X137410049Y-120540045D01*
X137410050Y-120540045D01*
X137271963Y-120499500D01*
X137271961Y-120499500D01*
X137128039Y-120499500D01*
X137128036Y-120499500D01*
X136981437Y-120542545D01*
X136981004Y-120541073D01*
X136942273Y-120549500D01*
X136157727Y-120549500D01*
X136118995Y-120541073D01*
X136118563Y-120542545D01*
X135971963Y-120499500D01*
X135971961Y-120499500D01*
X135828039Y-120499500D01*
X135828036Y-120499500D01*
X135689949Y-120540045D01*
X135568873Y-120617856D01*
X135474623Y-120726626D01*
X135474622Y-120726628D01*
X135414834Y-120857543D01*
X135394353Y-121000000D01*
X109327511Y-121000000D01*
X109280861Y-120887375D01*
X109276123Y-120881200D01*
X109250930Y-120816031D01*
X109250500Y-120805715D01*
X109250500Y-119924284D01*
X109270185Y-119857245D01*
X109276116Y-119848808D01*
X109280861Y-119842625D01*
X109336330Y-119708709D01*
X109355250Y-119565000D01*
X109354579Y-119559907D01*
X109345432Y-119490427D01*
X109336330Y-119421291D01*
X109327511Y-119400000D01*
X130894353Y-119400000D01*
X130914834Y-119542456D01*
X130974622Y-119673371D01*
X130974623Y-119673373D01*
X131068872Y-119782143D01*
X131189947Y-119859953D01*
X131189950Y-119859954D01*
X131189949Y-119859954D01*
X131328036Y-119900499D01*
X131328038Y-119900500D01*
X131328039Y-119900500D01*
X131471962Y-119900500D01*
X131471962Y-119900499D01*
X131610053Y-119859953D01*
X131731128Y-119782143D01*
X131825377Y-119673373D01*
X131867904Y-119580250D01*
X131893011Y-119544090D01*
X132528032Y-118909069D01*
X132589353Y-118875586D01*
X132650643Y-118877774D01*
X132728039Y-118900500D01*
X132871962Y-118900500D01*
X132871962Y-118900499D01*
X133010053Y-118859953D01*
X133131128Y-118782143D01*
X133225377Y-118673373D01*
X133285165Y-118542457D01*
X133305647Y-118400000D01*
X135294353Y-118400000D01*
X135314834Y-118542456D01*
X135374622Y-118673371D01*
X135374623Y-118673373D01*
X135468872Y-118782143D01*
X135589947Y-118859953D01*
X135589950Y-118859954D01*
X135589949Y-118859954D01*
X135728036Y-118900499D01*
X135728038Y-118900500D01*
X135728039Y-118900500D01*
X135871962Y-118900500D01*
X135871962Y-118900499D01*
X135924797Y-118884985D01*
X136018563Y-118857455D01*
X136018995Y-118858926D01*
X136057727Y-118850500D01*
X136942273Y-118850500D01*
X136981004Y-118858926D01*
X136981437Y-118857455D01*
X137128036Y-118900499D01*
X137128038Y-118900500D01*
X137128039Y-118900500D01*
X137271962Y-118900500D01*
X137271962Y-118900499D01*
X137410053Y-118859953D01*
X137531128Y-118782143D01*
X137625377Y-118673373D01*
X137685165Y-118542457D01*
X137705647Y-118400000D01*
X137698738Y-118351948D01*
X137708681Y-118282792D01*
X137754436Y-118229988D01*
X137773611Y-118219958D01*
X137773885Y-118219799D01*
X137773887Y-118219799D01*
X137876614Y-118160489D01*
X138150284Y-117886819D01*
X138211607Y-117853334D01*
X138237965Y-117850500D01*
X138442273Y-117850500D01*
X138481004Y-117858926D01*
X138481437Y-117857455D01*
X138581445Y-117886819D01*
X138624633Y-117899500D01*
X138628036Y-117900499D01*
X138628038Y-117900500D01*
X138628039Y-117900500D01*
X138771962Y-117900500D01*
X138771962Y-117900499D01*
X138910053Y-117859953D01*
X139031128Y-117782143D01*
X139125377Y-117673373D01*
X139185165Y-117542457D01*
X139205647Y-117400000D01*
X139185165Y-117257543D01*
X139125377Y-117126627D01*
X139031128Y-117017857D01*
X138910053Y-116940047D01*
X138910051Y-116940046D01*
X138910049Y-116940045D01*
X138910050Y-116940045D01*
X138771963Y-116899500D01*
X138771961Y-116899500D01*
X138628039Y-116899500D01*
X138628036Y-116899500D01*
X138481437Y-116942545D01*
X138481004Y-116941073D01*
X138442273Y-116949500D01*
X137940691Y-116949500D01*
X137826114Y-116980201D01*
X137826112Y-116980201D01*
X137826112Y-116980202D01*
X137801334Y-116994508D01*
X137801333Y-116994508D01*
X137723389Y-117039508D01*
X137723384Y-117039512D01*
X137499716Y-117263181D01*
X137438393Y-117296666D01*
X137412035Y-117299500D01*
X137328036Y-117299500D01*
X137189949Y-117340045D01*
X137068873Y-117417856D01*
X136974623Y-117526626D01*
X136974622Y-117526628D01*
X136914834Y-117657543D01*
X136894353Y-117800000D01*
X136894353Y-117800001D01*
X136895482Y-117807854D01*
X136885538Y-117877013D01*
X136839782Y-117929816D01*
X136772744Y-117949500D01*
X136057727Y-117949500D01*
X136018995Y-117941073D01*
X136018563Y-117942545D01*
X135871963Y-117899500D01*
X135871961Y-117899500D01*
X135728039Y-117899500D01*
X135728036Y-117899500D01*
X135589949Y-117940045D01*
X135468873Y-118017856D01*
X135374623Y-118126626D01*
X135374622Y-118126628D01*
X135314834Y-118257543D01*
X135294353Y-118400000D01*
X133305647Y-118400000D01*
X133285165Y-118257543D01*
X133225377Y-118126627D01*
X133131128Y-118017857D01*
X133010053Y-117940047D01*
X133010051Y-117940046D01*
X133010049Y-117940045D01*
X133010050Y-117940045D01*
X132871963Y-117899500D01*
X132871961Y-117899500D01*
X132728039Y-117899500D01*
X132728036Y-117899500D01*
X132581437Y-117942545D01*
X132581004Y-117941073D01*
X132542273Y-117949500D01*
X132340691Y-117949500D01*
X132271944Y-117967920D01*
X132226112Y-117980201D01*
X132226107Y-117980204D01*
X132123393Y-118039505D01*
X132123385Y-118039511D01*
X131258905Y-118903990D01*
X131206163Y-118935285D01*
X131189949Y-118940046D01*
X131189945Y-118940048D01*
X131068873Y-119017856D01*
X130974623Y-119126626D01*
X130974622Y-119126628D01*
X130914834Y-119257543D01*
X130894353Y-119400000D01*
X109327511Y-119400000D01*
X109280861Y-119287375D01*
X109192621Y-119172379D01*
X109077625Y-119084139D01*
X109077624Y-119084138D01*
X109077622Y-119084137D01*
X108943712Y-119028671D01*
X108943710Y-119028670D01*
X108943709Y-119028670D01*
X108861570Y-119017856D01*
X108800001Y-119009750D01*
X108799999Y-119009750D01*
X108656291Y-119028670D01*
X108656287Y-119028671D01*
X108522377Y-119084137D01*
X108407379Y-119172379D01*
X108319137Y-119287377D01*
X108263671Y-119421287D01*
X108263670Y-119421291D01*
X108245421Y-119559907D01*
X108244750Y-119565000D01*
X89800000Y-119565000D01*
X89800000Y-116162829D01*
X138544353Y-116162829D01*
X138564834Y-116305285D01*
X138624622Y-116436200D01*
X138624623Y-116436202D01*
X138718872Y-116544972D01*
X138839947Y-116622782D01*
X138839950Y-116622783D01*
X138839949Y-116622783D01*
X138978036Y-116663328D01*
X138978038Y-116663329D01*
X138978039Y-116663329D01*
X139121962Y-116663329D01*
X139121962Y-116663328D01*
X139260053Y-116622782D01*
X139381128Y-116544972D01*
X139475377Y-116436202D01*
X139517904Y-116343079D01*
X139543011Y-116306919D01*
X140513113Y-115336819D01*
X140574436Y-115303334D01*
X140600794Y-115300500D01*
X140621962Y-115300500D01*
X140621962Y-115300499D01*
X140760053Y-115259953D01*
X140881128Y-115182143D01*
X140975377Y-115073373D01*
X141035165Y-114942457D01*
X141055647Y-114800000D01*
X141035165Y-114657543D01*
X140975377Y-114526627D01*
X140881128Y-114417857D01*
X140760053Y-114340047D01*
X140760051Y-114340046D01*
X140760049Y-114340045D01*
X140760050Y-114340045D01*
X140621963Y-114299500D01*
X140621961Y-114299500D01*
X140478039Y-114299500D01*
X140478036Y-114299500D01*
X140339952Y-114340044D01*
X140339946Y-114340047D01*
X140321280Y-114352043D01*
X140286338Y-114367500D01*
X140263156Y-114373712D01*
X140238945Y-114380199D01*
X140238942Y-114380200D01*
X140136215Y-114439511D01*
X140136212Y-114439513D01*
X138908905Y-115666819D01*
X138856163Y-115698114D01*
X138839949Y-115702875D01*
X138839945Y-115702877D01*
X138718873Y-115780685D01*
X138624623Y-115889455D01*
X138624622Y-115889457D01*
X138564834Y-116020372D01*
X138544353Y-116162829D01*
X89800000Y-116162829D01*
X89800000Y-113740000D01*
X93744417Y-113740000D01*
X93764699Y-113945932D01*
X93764700Y-113945934D01*
X93824768Y-114143954D01*
X93922315Y-114326450D01*
X93922317Y-114326452D01*
X94053589Y-114486410D01*
X94102596Y-114526628D01*
X94213550Y-114617685D01*
X94396046Y-114715232D01*
X94594066Y-114775300D01*
X94594065Y-114775300D01*
X94612529Y-114777118D01*
X94800000Y-114795583D01*
X95005934Y-114775300D01*
X95203954Y-114715232D01*
X95386450Y-114617685D01*
X95546410Y-114486410D01*
X95677685Y-114326450D01*
X95775232Y-114143954D01*
X95835300Y-113945934D01*
X95855583Y-113740000D01*
X95835300Y-113534066D01*
X95775232Y-113336046D01*
X95677685Y-113153550D01*
X95625702Y-113090209D01*
X95546410Y-112993589D01*
X95386452Y-112862317D01*
X95386453Y-112862317D01*
X95386450Y-112862315D01*
X95203954Y-112764768D01*
X95005934Y-112704700D01*
X95005932Y-112704699D01*
X95005934Y-112704699D01*
X94800000Y-112684417D01*
X94594067Y-112704699D01*
X94396043Y-112764769D01*
X94285898Y-112823643D01*
X94213550Y-112862315D01*
X94213548Y-112862316D01*
X94213547Y-112862317D01*
X94053589Y-112993589D01*
X93922317Y-113153547D01*
X93824769Y-113336043D01*
X93764699Y-113534067D01*
X93744417Y-113740000D01*
X89800000Y-113740000D01*
X89800000Y-110330247D01*
X93749500Y-110330247D01*
X93749500Y-112069752D01*
X93761131Y-112128229D01*
X93761132Y-112128230D01*
X93805447Y-112194552D01*
X93871769Y-112238867D01*
X93871770Y-112238868D01*
X93930247Y-112250499D01*
X93930250Y-112250500D01*
X93930252Y-112250500D01*
X95669750Y-112250500D01*
X95669751Y-112250499D01*
X95684568Y-112247552D01*
X95728229Y-112238868D01*
X95728229Y-112238867D01*
X95728231Y-112238867D01*
X95794552Y-112194552D01*
X95838867Y-112128231D01*
X95838867Y-112128229D01*
X95838868Y-112128229D01*
X95850499Y-112069752D01*
X95850500Y-112069750D01*
X95850500Y-110330249D01*
X95850499Y-110330247D01*
X95838868Y-110271770D01*
X95838867Y-110271769D01*
X95794552Y-110205447D01*
X95728230Y-110161132D01*
X95728229Y-110161131D01*
X95669752Y-110149500D01*
X95669748Y-110149500D01*
X93930252Y-110149500D01*
X93930247Y-110149500D01*
X93871770Y-110161131D01*
X93871769Y-110161132D01*
X93805447Y-110205447D01*
X93761132Y-110271769D01*
X93761131Y-110271770D01*
X93749500Y-110330247D01*
X89800000Y-110330247D01*
X89800000Y-107421156D01*
X154394499Y-107421156D01*
X154430065Y-107599952D01*
X154430068Y-107599962D01*
X154499831Y-107768387D01*
X154499833Y-107768391D01*
X154601113Y-107919967D01*
X154601119Y-107919975D01*
X154730024Y-108048880D01*
X154730032Y-108048886D01*
X154881608Y-108150166D01*
X154881612Y-108150168D01*
X155050037Y-108219931D01*
X155050042Y-108219933D01*
X155050046Y-108219933D01*
X155050047Y-108219934D01*
X155228843Y-108255500D01*
X155228846Y-108255500D01*
X155961156Y-108255500D01*
X156081445Y-108231572D01*
X156139958Y-108219933D01*
X156308389Y-108150167D01*
X156308391Y-108150166D01*
X156409859Y-108082367D01*
X156459972Y-108048883D01*
X156588883Y-107919972D01*
X156690167Y-107768389D01*
X156759933Y-107599958D01*
X156795500Y-107421154D01*
X156795500Y-107403615D01*
X158294500Y-107403615D01*
X158294500Y-107556384D01*
X158324300Y-107706197D01*
X158324302Y-107706205D01*
X158382759Y-107847334D01*
X158382764Y-107847343D01*
X158467629Y-107974351D01*
X158467632Y-107974355D01*
X158575644Y-108082367D01*
X158575648Y-108082370D01*
X158702656Y-108167235D01*
X158702662Y-108167238D01*
X158702663Y-108167239D01*
X158843795Y-108225698D01*
X158993615Y-108255499D01*
X158993619Y-108255500D01*
X158993620Y-108255500D01*
X159796381Y-108255500D01*
X159796382Y-108255499D01*
X159946205Y-108225698D01*
X160087337Y-108167239D01*
X160214352Y-108082370D01*
X160322370Y-107974352D01*
X160407239Y-107847337D01*
X160465698Y-107706205D01*
X160495500Y-107556380D01*
X160495500Y-107403620D01*
X160465698Y-107253795D01*
X160407239Y-107112663D01*
X160407238Y-107112662D01*
X160407235Y-107112656D01*
X160322370Y-106985648D01*
X160322367Y-106985644D01*
X160214355Y-106877632D01*
X160214351Y-106877629D01*
X160087343Y-106792764D01*
X160087334Y-106792759D01*
X159946205Y-106734302D01*
X159946197Y-106734300D01*
X159796384Y-106704500D01*
X159796380Y-106704500D01*
X158993620Y-106704500D01*
X158993615Y-106704500D01*
X158843802Y-106734300D01*
X158843794Y-106734302D01*
X158702665Y-106792759D01*
X158702656Y-106792764D01*
X158575648Y-106877629D01*
X158575644Y-106877632D01*
X158467632Y-106985644D01*
X158467629Y-106985648D01*
X158382764Y-107112656D01*
X158382759Y-107112665D01*
X158324302Y-107253794D01*
X158324300Y-107253802D01*
X158294500Y-107403615D01*
X156795500Y-107403615D01*
X156795500Y-107238846D01*
X156795500Y-107238843D01*
X156759934Y-107060047D01*
X156759933Y-107060046D01*
X156759933Y-107060042D01*
X156697338Y-106908925D01*
X156689870Y-106839457D01*
X156721145Y-106776978D01*
X156781234Y-106741326D01*
X156787677Y-106739863D01*
X156834744Y-106730501D01*
X156953127Y-106681465D01*
X157059669Y-106610276D01*
X157150276Y-106519669D01*
X157221465Y-106413127D01*
X157270501Y-106294744D01*
X157282064Y-106236614D01*
X157295500Y-106169071D01*
X157295500Y-106040928D01*
X157270502Y-105915261D01*
X157270501Y-105915260D01*
X157270501Y-105915256D01*
X157221465Y-105796873D01*
X157221464Y-105796872D01*
X157221461Y-105796866D01*
X157150276Y-105690331D01*
X157150273Y-105690327D01*
X157059672Y-105599726D01*
X157059668Y-105599723D01*
X156953133Y-105528538D01*
X156953124Y-105528533D01*
X156834744Y-105479499D01*
X156834738Y-105479497D01*
X156709071Y-105454500D01*
X156709069Y-105454500D01*
X156580931Y-105454500D01*
X156580929Y-105454500D01*
X156455261Y-105479497D01*
X156455255Y-105479499D01*
X156336875Y-105528533D01*
X156336866Y-105528538D01*
X156230331Y-105599723D01*
X156230327Y-105599726D01*
X156139726Y-105690327D01*
X156139723Y-105690331D01*
X156068538Y-105796866D01*
X156068533Y-105796875D01*
X156019499Y-105915255D01*
X156019497Y-105915261D01*
X155994500Y-106040928D01*
X155994500Y-106040931D01*
X155994500Y-106169069D01*
X155994500Y-106169071D01*
X155994499Y-106169071D01*
X156011853Y-106256308D01*
X156005626Y-106325900D01*
X155962763Y-106381077D01*
X155896874Y-106404322D01*
X155890236Y-106404500D01*
X155228844Y-106404500D01*
X155050047Y-106440065D01*
X155050037Y-106440068D01*
X154881612Y-106509831D01*
X154881608Y-106509833D01*
X154730032Y-106611113D01*
X154730024Y-106611119D01*
X154601119Y-106740024D01*
X154601113Y-106740032D01*
X154499833Y-106891608D01*
X154499831Y-106891612D01*
X154430068Y-107060037D01*
X154430065Y-107060047D01*
X154394500Y-107238843D01*
X154394500Y-107238846D01*
X154394500Y-107421154D01*
X154394500Y-107421156D01*
X154394499Y-107421156D01*
X89800000Y-107421156D01*
X89800000Y-105030247D01*
X108534500Y-105030247D01*
X108534500Y-106569752D01*
X108546131Y-106628229D01*
X108546132Y-106628230D01*
X108590447Y-106694552D01*
X108656769Y-106738867D01*
X108656770Y-106738868D01*
X108715247Y-106750499D01*
X108715250Y-106750500D01*
X109754568Y-106750500D01*
X109821607Y-106770185D01*
X109842250Y-106786820D01*
X109876596Y-106821167D01*
X109876600Y-106821170D01*
X110044473Y-106933340D01*
X110044486Y-106933347D01*
X110231016Y-107010609D01*
X110231025Y-107010612D01*
X110280000Y-107020353D01*
X110280000Y-106080330D01*
X110299745Y-106100075D01*
X110385255Y-106149444D01*
X110480630Y-106175000D01*
X110579370Y-106175000D01*
X110674745Y-106149444D01*
X110760255Y-106100075D01*
X110780000Y-106080330D01*
X110780000Y-107020352D01*
X110828974Y-107010612D01*
X110828983Y-107010609D01*
X111015513Y-106933347D01*
X111015526Y-106933340D01*
X111183398Y-106821171D01*
X111313308Y-106691261D01*
X111374631Y-106657776D01*
X111444323Y-106662760D01*
X111450701Y-106665639D01*
X111450719Y-106665598D01*
X111456347Y-106667929D01*
X111588380Y-106722619D01*
X111588384Y-106722619D01*
X111588385Y-106722620D01*
X111728542Y-106750500D01*
X111728545Y-106750500D01*
X111871457Y-106750500D01*
X111972000Y-106730500D01*
X112011620Y-106722619D01*
X112143653Y-106667929D01*
X112262479Y-106588532D01*
X112363532Y-106487479D01*
X112442929Y-106368653D01*
X112497619Y-106236620D01*
X112525500Y-106096455D01*
X112525500Y-105503545D01*
X112525500Y-105503542D01*
X112497620Y-105363385D01*
X112497619Y-105363384D01*
X112497619Y-105363380D01*
X112442929Y-105231347D01*
X112442928Y-105231346D01*
X112442925Y-105231340D01*
X112363532Y-105112521D01*
X112363529Y-105112517D01*
X112262482Y-105011470D01*
X112262478Y-105011467D01*
X112143659Y-104932074D01*
X112143650Y-104932069D01*
X112011620Y-104877381D01*
X112011614Y-104877379D01*
X111871457Y-104849500D01*
X111871455Y-104849500D01*
X111728545Y-104849500D01*
X111728543Y-104849500D01*
X111588385Y-104877379D01*
X111588379Y-104877381D01*
X111450719Y-104934402D01*
X111449893Y-104932408D01*
X111391017Y-104944655D01*
X111325778Y-104919643D01*
X111313309Y-104908738D01*
X111183403Y-104778832D01*
X111183399Y-104778829D01*
X111015526Y-104666659D01*
X111015513Y-104666652D01*
X110828984Y-104589390D01*
X110828977Y-104589388D01*
X110780000Y-104579645D01*
X110780000Y-105519670D01*
X110760255Y-105499925D01*
X110674745Y-105450556D01*
X110579370Y-105425000D01*
X110480630Y-105425000D01*
X110385255Y-105450556D01*
X110299745Y-105499925D01*
X110280000Y-105519670D01*
X110280000Y-104579646D01*
X110279999Y-104579645D01*
X110231022Y-104589388D01*
X110231015Y-104589390D01*
X110044486Y-104666652D01*
X110044473Y-104666659D01*
X109876603Y-104778827D01*
X109876598Y-104778831D01*
X109842247Y-104813182D01*
X109780924Y-104846667D01*
X109754567Y-104849500D01*
X108715247Y-104849500D01*
X108656770Y-104861131D01*
X108656769Y-104861132D01*
X108590447Y-104905447D01*
X108546132Y-104971769D01*
X108546131Y-104971770D01*
X108534500Y-105030247D01*
X89800000Y-105030247D01*
X89800000Y-100800000D01*
X129694353Y-100800000D01*
X129714834Y-100942456D01*
X129759806Y-101040928D01*
X129774623Y-101073373D01*
X129868872Y-101182143D01*
X129989947Y-101259953D01*
X129989950Y-101259954D01*
X129989949Y-101259954D01*
X130136548Y-101302999D01*
X130135847Y-101305384D01*
X130187378Y-101328909D01*
X130193869Y-101334952D01*
X131157979Y-102299063D01*
X131183092Y-102335232D01*
X131225617Y-102428347D01*
X131319866Y-102537117D01*
X131440941Y-102614927D01*
X131440944Y-102614928D01*
X131440943Y-102614928D01*
X131579030Y-102655473D01*
X131579032Y-102655474D01*
X131579033Y-102655474D01*
X131722956Y-102655474D01*
X131722956Y-102655473D01*
X131861047Y-102614927D01*
X131982122Y-102537117D01*
X132076371Y-102428347D01*
X132136159Y-102297431D01*
X132156641Y-102154974D01*
X132136159Y-102012517D01*
X132076371Y-101881601D01*
X131982122Y-101772831D01*
X131861047Y-101695021D01*
X131861044Y-101695020D01*
X131861042Y-101695019D01*
X131844831Y-101690259D01*
X131792088Y-101658964D01*
X130572635Y-100439511D01*
X130498327Y-100396608D01*
X130493290Y-100393538D01*
X130410057Y-100340049D01*
X130410048Y-100340044D01*
X130271963Y-100299500D01*
X130271961Y-100299500D01*
X130128039Y-100299500D01*
X130128036Y-100299500D01*
X129989949Y-100340045D01*
X129868873Y-100417856D01*
X129774623Y-100526626D01*
X129774622Y-100526628D01*
X129714834Y-100657543D01*
X129694353Y-100800000D01*
X89800000Y-100800000D01*
X89800000Y-99971156D01*
X154394499Y-99971156D01*
X154430065Y-100149952D01*
X154430068Y-100149962D01*
X154499831Y-100318387D01*
X154499833Y-100318391D01*
X154601113Y-100469967D01*
X154601119Y-100469975D01*
X154730024Y-100598880D01*
X154730032Y-100598886D01*
X154881608Y-100700166D01*
X154881612Y-100700168D01*
X155050037Y-100769931D01*
X155050042Y-100769933D01*
X155050046Y-100769933D01*
X155050047Y-100769934D01*
X155228843Y-100805500D01*
X155890236Y-100805500D01*
X155957275Y-100825185D01*
X156003030Y-100877989D01*
X156012974Y-100947147D01*
X156011853Y-100953692D01*
X155994500Y-101040928D01*
X155994500Y-101040931D01*
X155994500Y-101169069D01*
X155994500Y-101169071D01*
X155994499Y-101169071D01*
X156019497Y-101294738D01*
X156019499Y-101294744D01*
X156068533Y-101413124D01*
X156068538Y-101413133D01*
X156139723Y-101519668D01*
X156139726Y-101519672D01*
X156230327Y-101610273D01*
X156230331Y-101610276D01*
X156336866Y-101681461D01*
X156336875Y-101681466D01*
X156363692Y-101692574D01*
X156455256Y-101730501D01*
X156455260Y-101730501D01*
X156455261Y-101730502D01*
X156580928Y-101755500D01*
X156580931Y-101755500D01*
X156709071Y-101755500D01*
X156793615Y-101738682D01*
X156834744Y-101730501D01*
X156953127Y-101681465D01*
X157059669Y-101610276D01*
X157150276Y-101519669D01*
X157221465Y-101413127D01*
X157270501Y-101294744D01*
X157278682Y-101253615D01*
X157295500Y-101169071D01*
X157295500Y-101040928D01*
X157270502Y-100915261D01*
X157270501Y-100915260D01*
X157270501Y-100915256D01*
X157232574Y-100823692D01*
X157221466Y-100796875D01*
X157221461Y-100796866D01*
X157150276Y-100690331D01*
X157150273Y-100690327D01*
X157059672Y-100599726D01*
X157059668Y-100599723D01*
X156953133Y-100528538D01*
X156953124Y-100528533D01*
X156834744Y-100479499D01*
X156834739Y-100479497D01*
X156787707Y-100470142D01*
X156725797Y-100437756D01*
X156691223Y-100377040D01*
X156694964Y-100307271D01*
X156697327Y-100301100D01*
X156759933Y-100149958D01*
X156795500Y-99971154D01*
X156795500Y-99788846D01*
X156795500Y-99788843D01*
X156768601Y-99653615D01*
X158294500Y-99653615D01*
X158294500Y-99806384D01*
X158324300Y-99956197D01*
X158324302Y-99956205D01*
X158382759Y-100097334D01*
X158382764Y-100097343D01*
X158467629Y-100224351D01*
X158467632Y-100224355D01*
X158575644Y-100332367D01*
X158575648Y-100332370D01*
X158702656Y-100417235D01*
X158702665Y-100417240D01*
X158704155Y-100417857D01*
X158843795Y-100475698D01*
X158993615Y-100505499D01*
X158993619Y-100505500D01*
X158993620Y-100505500D01*
X159796381Y-100505500D01*
X159796382Y-100505499D01*
X159946205Y-100475698D01*
X160087337Y-100417239D01*
X160214352Y-100332370D01*
X160322370Y-100224352D01*
X160407239Y-100097337D01*
X160465698Y-99956205D01*
X160495500Y-99806380D01*
X160495500Y-99653620D01*
X160465698Y-99503795D01*
X160407239Y-99362663D01*
X160407238Y-99362662D01*
X160407235Y-99362656D01*
X160322370Y-99235648D01*
X160322367Y-99235644D01*
X160214355Y-99127632D01*
X160214351Y-99127629D01*
X160087343Y-99042764D01*
X160087334Y-99042759D01*
X159946205Y-98984302D01*
X159946197Y-98984300D01*
X159796384Y-98954500D01*
X159796380Y-98954500D01*
X158993620Y-98954500D01*
X158993615Y-98954500D01*
X158843802Y-98984300D01*
X158843794Y-98984302D01*
X158702665Y-99042759D01*
X158702656Y-99042764D01*
X158575648Y-99127629D01*
X158575644Y-99127632D01*
X158467632Y-99235644D01*
X158467629Y-99235648D01*
X158382764Y-99362656D01*
X158382759Y-99362665D01*
X158324302Y-99503794D01*
X158324300Y-99503802D01*
X158294500Y-99653615D01*
X156768601Y-99653615D01*
X156759934Y-99610047D01*
X156759933Y-99610046D01*
X156759933Y-99610042D01*
X156759931Y-99610037D01*
X156690168Y-99441612D01*
X156690166Y-99441608D01*
X156588886Y-99290032D01*
X156588880Y-99290024D01*
X156459975Y-99161119D01*
X156459967Y-99161113D01*
X156308391Y-99059833D01*
X156308387Y-99059831D01*
X156139962Y-98990068D01*
X156139952Y-98990065D01*
X155961156Y-98954500D01*
X155961154Y-98954500D01*
X155228846Y-98954500D01*
X155228844Y-98954500D01*
X155050047Y-98990065D01*
X155050037Y-98990068D01*
X154881612Y-99059831D01*
X154881608Y-99059833D01*
X154730032Y-99161113D01*
X154730024Y-99161119D01*
X154601119Y-99290024D01*
X154601113Y-99290032D01*
X154499833Y-99441608D01*
X154499831Y-99441612D01*
X154430068Y-99610037D01*
X154430065Y-99610047D01*
X154394500Y-99788843D01*
X154394500Y-99788846D01*
X154394500Y-99971154D01*
X154394500Y-99971156D01*
X154394499Y-99971156D01*
X89800000Y-99971156D01*
X89800000Y-98864930D01*
X127829423Y-98864930D01*
X127849904Y-99007386D01*
X127904818Y-99127629D01*
X127909693Y-99138303D01*
X128003942Y-99247073D01*
X128125017Y-99324883D01*
X128125020Y-99324884D01*
X128125019Y-99324884D01*
X128232177Y-99356347D01*
X128253685Y-99362663D01*
X128263106Y-99365429D01*
X128263108Y-99365430D01*
X128263109Y-99365430D01*
X128407032Y-99365430D01*
X128407032Y-99365429D01*
X128545123Y-99324883D01*
X128666198Y-99247073D01*
X128760447Y-99138303D01*
X128820235Y-99007387D01*
X128840717Y-98864930D01*
X128820235Y-98722473D01*
X128808626Y-98697052D01*
X128796776Y-98671104D01*
X128785570Y-98619593D01*
X128785570Y-97921316D01*
X128805255Y-97854277D01*
X128858059Y-97808522D01*
X128858065Y-97808519D01*
X128864367Y-97805641D01*
X128985433Y-97727836D01*
X128985432Y-97727836D01*
X128985438Y-97727833D01*
X129079687Y-97619063D01*
X129139475Y-97488147D01*
X129159957Y-97345690D01*
X129139475Y-97203233D01*
X129079687Y-97072317D01*
X128985438Y-96963547D01*
X128864363Y-96885737D01*
X128864361Y-96885736D01*
X128864359Y-96885735D01*
X128864360Y-96885735D01*
X128726273Y-96845190D01*
X128726271Y-96845190D01*
X128582349Y-96845190D01*
X128582346Y-96845190D01*
X128444259Y-96885735D01*
X128323183Y-96963546D01*
X128228933Y-97072316D01*
X128228931Y-97072319D01*
X128186405Y-97165435D01*
X128161294Y-97201602D01*
X127974580Y-97388317D01*
X127974579Y-97388319D01*
X127915271Y-97491042D01*
X127915270Y-97491047D01*
X127884570Y-97605621D01*
X127884570Y-98619593D01*
X127873364Y-98671104D01*
X127849905Y-98722471D01*
X127849904Y-98722472D01*
X127829423Y-98864930D01*
X89800000Y-98864930D01*
X89800000Y-92270000D01*
X111121491Y-92270000D01*
X112109252Y-92270000D01*
X112087482Y-92307708D01*
X112050000Y-92447591D01*
X112050000Y-92592409D01*
X112087482Y-92732292D01*
X112109252Y-92770000D01*
X111121491Y-92770000D01*
X111135765Y-92860128D01*
X111206417Y-93077570D01*
X111310211Y-93281276D01*
X111444597Y-93466242D01*
X111606257Y-93627902D01*
X111791223Y-93762288D01*
X111958623Y-93847583D01*
X112009419Y-93895558D01*
X112026214Y-93963379D01*
X112003677Y-94029513D01*
X111958625Y-94068552D01*
X111948195Y-94073866D01*
X111875655Y-94126570D01*
X111801371Y-94180541D01*
X111801369Y-94180543D01*
X111801368Y-94180543D01*
X111673043Y-94308868D01*
X111673043Y-94308869D01*
X111673041Y-94308871D01*
X111647215Y-94344417D01*
X111566366Y-94455695D01*
X111483971Y-94617404D01*
X111427891Y-94790000D01*
X111427891Y-94790003D01*
X111399500Y-94969257D01*
X111399500Y-95150742D01*
X111427891Y-95329996D01*
X111427891Y-95329999D01*
X111483971Y-95502595D01*
X111502166Y-95538304D01*
X111566366Y-95664304D01*
X111673041Y-95811129D01*
X111801371Y-95939459D01*
X111948196Y-96046134D01*
X112009909Y-96077578D01*
X112109904Y-96128528D01*
X112282501Y-96184608D01*
X112282502Y-96184608D01*
X112282505Y-96184609D01*
X112370371Y-96198525D01*
X112383006Y-96200527D01*
X112446141Y-96230456D01*
X112483072Y-96289768D01*
X112482074Y-96359630D01*
X112443464Y-96417863D01*
X112379501Y-96445977D01*
X112363608Y-96447000D01*
X111580247Y-96447000D01*
X111521770Y-96458631D01*
X111521769Y-96458632D01*
X111455447Y-96502947D01*
X111411132Y-96569269D01*
X111411131Y-96569270D01*
X111399500Y-96627747D01*
X111399500Y-98572252D01*
X111411131Y-98630729D01*
X111411132Y-98630730D01*
X111455447Y-98697052D01*
X111521769Y-98741367D01*
X111521770Y-98741368D01*
X111580247Y-98752999D01*
X111580250Y-98753000D01*
X111580252Y-98753000D01*
X113619750Y-98753000D01*
X113619751Y-98752999D01*
X113634568Y-98750052D01*
X113678229Y-98741368D01*
X113678229Y-98741367D01*
X113678231Y-98741367D01*
X113744552Y-98697052D01*
X113788867Y-98630731D01*
X113788867Y-98630729D01*
X113788868Y-98630729D01*
X113800499Y-98572252D01*
X113800500Y-98572250D01*
X113800500Y-96627749D01*
X113800499Y-96627747D01*
X113788868Y-96569270D01*
X113788867Y-96569269D01*
X113744552Y-96502947D01*
X113678230Y-96458632D01*
X113678229Y-96458631D01*
X113619752Y-96447000D01*
X113619748Y-96447000D01*
X112836392Y-96447000D01*
X112769353Y-96427315D01*
X112723598Y-96374511D01*
X112713654Y-96305353D01*
X112742679Y-96241797D01*
X112801457Y-96204023D01*
X112816994Y-96200527D01*
X112822915Y-96199589D01*
X112917495Y-96184609D01*
X112917498Y-96184608D01*
X112917499Y-96184608D01*
X113090095Y-96128528D01*
X113090095Y-96128527D01*
X113090098Y-96128527D01*
X113251804Y-96046134D01*
X113398629Y-95939459D01*
X113526959Y-95811129D01*
X113633634Y-95664304D01*
X113716027Y-95502598D01*
X113772109Y-95329995D01*
X113782414Y-95264930D01*
X124229423Y-95264930D01*
X124249904Y-95407386D01*
X124293387Y-95502598D01*
X124309693Y-95538303D01*
X124403942Y-95647073D01*
X124525017Y-95724883D01*
X124525020Y-95724884D01*
X124525019Y-95724884D01*
X124663106Y-95765429D01*
X124663108Y-95765430D01*
X124663109Y-95765430D01*
X124807032Y-95765430D01*
X124807032Y-95765429D01*
X124945123Y-95724883D01*
X125066198Y-95647073D01*
X125160447Y-95538303D01*
X125202974Y-95445180D01*
X125228081Y-95409020D01*
X125487102Y-95149999D01*
X141669364Y-95149999D01*
X141669364Y-95150000D01*
X142566988Y-95150000D01*
X142534075Y-95207007D01*
X142500000Y-95334174D01*
X142500000Y-95465826D01*
X142534075Y-95592993D01*
X142566988Y-95650000D01*
X141669364Y-95650000D01*
X141726567Y-95863486D01*
X141726570Y-95863492D01*
X141826399Y-96077578D01*
X141961894Y-96271082D01*
X142128917Y-96438105D01*
X142322421Y-96573600D01*
X142536507Y-96673429D01*
X142536516Y-96673433D01*
X142750000Y-96730634D01*
X142750000Y-95833012D01*
X142807007Y-95865925D01*
X142934174Y-95900000D01*
X143065826Y-95900000D01*
X143192993Y-95865925D01*
X143250000Y-95833012D01*
X143250000Y-96730633D01*
X143463483Y-96673433D01*
X143463492Y-96673429D01*
X143677578Y-96573600D01*
X143871082Y-96438105D01*
X144038105Y-96271082D01*
X144173600Y-96077578D01*
X144273429Y-95863492D01*
X144273433Y-95863483D01*
X144306158Y-95741350D01*
X144342522Y-95681690D01*
X144405369Y-95651160D01*
X144474745Y-95659454D01*
X144528623Y-95703939D01*
X144544593Y-95737447D01*
X144564768Y-95803954D01*
X144662315Y-95986450D01*
X144662317Y-95986452D01*
X144793589Y-96146410D01*
X144890209Y-96225702D01*
X144953550Y-96277685D01*
X145136046Y-96375232D01*
X145334066Y-96435300D01*
X145334065Y-96435300D01*
X145352529Y-96437118D01*
X145540000Y-96455583D01*
X145745934Y-96435300D01*
X145943954Y-96375232D01*
X146126450Y-96277685D01*
X146286410Y-96146410D01*
X146417685Y-95986450D01*
X146515232Y-95803954D01*
X146575300Y-95605934D01*
X146595583Y-95400000D01*
X147024417Y-95400000D01*
X147044699Y-95605932D01*
X147044700Y-95605934D01*
X147104768Y-95803954D01*
X147202315Y-95986450D01*
X147202317Y-95986452D01*
X147333589Y-96146410D01*
X147430209Y-96225702D01*
X147493550Y-96277685D01*
X147676046Y-96375232D01*
X147874066Y-96435300D01*
X147874065Y-96435300D01*
X147892529Y-96437118D01*
X148080000Y-96455583D01*
X148285934Y-96435300D01*
X148483954Y-96375232D01*
X148666450Y-96277685D01*
X148826410Y-96146410D01*
X148957685Y-95986450D01*
X149055232Y-95803954D01*
X149115300Y-95605934D01*
X149135583Y-95400000D01*
X149115300Y-95194066D01*
X149055232Y-94996046D01*
X148957685Y-94813550D01*
X148882897Y-94722420D01*
X148826410Y-94653589D01*
X148676121Y-94530252D01*
X148676115Y-94530247D01*
X149569500Y-94530247D01*
X149569500Y-96269752D01*
X149581131Y-96328229D01*
X149581132Y-96328230D01*
X149625447Y-96394552D01*
X149691769Y-96438867D01*
X149691770Y-96438868D01*
X149750247Y-96450499D01*
X149750250Y-96450500D01*
X149750252Y-96450500D01*
X151489750Y-96450500D01*
X151489751Y-96450499D01*
X151512487Y-96445977D01*
X151548229Y-96438868D01*
X151548229Y-96438867D01*
X151548231Y-96438867D01*
X151614552Y-96394552D01*
X151658867Y-96328231D01*
X151658867Y-96328229D01*
X151658868Y-96328229D01*
X151668922Y-96277682D01*
X151670500Y-96269748D01*
X151670500Y-94530252D01*
X151670500Y-94530249D01*
X151670499Y-94530247D01*
X151658868Y-94471770D01*
X151658867Y-94471769D01*
X151614552Y-94405447D01*
X151548230Y-94361132D01*
X151548229Y-94361131D01*
X151489752Y-94349500D01*
X151489748Y-94349500D01*
X149750252Y-94349500D01*
X149750247Y-94349500D01*
X149691770Y-94361131D01*
X149691769Y-94361132D01*
X149625447Y-94405447D01*
X149581132Y-94471769D01*
X149581131Y-94471770D01*
X149569500Y-94530247D01*
X148676115Y-94530247D01*
X148666450Y-94522315D01*
X148483954Y-94424768D01*
X148285934Y-94364700D01*
X148285932Y-94364699D01*
X148285934Y-94364699D01*
X148080000Y-94344417D01*
X147874067Y-94364699D01*
X147676043Y-94424769D01*
X147618186Y-94455695D01*
X147493550Y-94522315D01*
X147493548Y-94522316D01*
X147493547Y-94522317D01*
X147333589Y-94653589D01*
X147202317Y-94813547D01*
X147104769Y-94996043D01*
X147044699Y-95194067D01*
X147024417Y-95400000D01*
X146595583Y-95400000D01*
X146575300Y-95194066D01*
X146515232Y-94996046D01*
X146417685Y-94813550D01*
X146342897Y-94722420D01*
X146286410Y-94653589D01*
X146136121Y-94530252D01*
X146126450Y-94522315D01*
X145943954Y-94424768D01*
X145745934Y-94364700D01*
X145745932Y-94364699D01*
X145745934Y-94364699D01*
X145540000Y-94344417D01*
X145334067Y-94364699D01*
X145136043Y-94424769D01*
X145078186Y-94455695D01*
X144953550Y-94522315D01*
X144953548Y-94522316D01*
X144953547Y-94522317D01*
X144793589Y-94653589D01*
X144662317Y-94813547D01*
X144564767Y-94996046D01*
X144544593Y-95062552D01*
X144506296Y-95120990D01*
X144442483Y-95149447D01*
X144373416Y-95138886D01*
X144321023Y-95092661D01*
X144306158Y-95058649D01*
X144273433Y-94936516D01*
X144273429Y-94936507D01*
X144173600Y-94722422D01*
X144173599Y-94722420D01*
X144038113Y-94528926D01*
X144038108Y-94528920D01*
X143871082Y-94361894D01*
X143677578Y-94226399D01*
X143463492Y-94126570D01*
X143463486Y-94126567D01*
X143250000Y-94069364D01*
X143250000Y-94966988D01*
X143192993Y-94934075D01*
X143065826Y-94900000D01*
X142934174Y-94900000D01*
X142807007Y-94934075D01*
X142750000Y-94966988D01*
X142750000Y-94069364D01*
X142749999Y-94069364D01*
X142536513Y-94126567D01*
X142536507Y-94126570D01*
X142322422Y-94226399D01*
X142322420Y-94226400D01*
X142128926Y-94361886D01*
X142128920Y-94361891D01*
X141961891Y-94528920D01*
X141961886Y-94528926D01*
X141826400Y-94722420D01*
X141826399Y-94722422D01*
X141726570Y-94936507D01*
X141726567Y-94936513D01*
X141669364Y-95149999D01*
X125487102Y-95149999D01*
X125941094Y-94696007D01*
X125993842Y-94664712D01*
X126010053Y-94659953D01*
X126010055Y-94659951D01*
X126010057Y-94659951D01*
X126131123Y-94582146D01*
X126131122Y-94582146D01*
X126131128Y-94582143D01*
X126225377Y-94473373D01*
X126285165Y-94342457D01*
X126305647Y-94200000D01*
X126285165Y-94057543D01*
X126225377Y-93926627D01*
X126131128Y-93817857D01*
X126010053Y-93740047D01*
X126010051Y-93740046D01*
X126010049Y-93740045D01*
X126010050Y-93740045D01*
X125871963Y-93699500D01*
X125871961Y-93699500D01*
X125728039Y-93699500D01*
X125728036Y-93699500D01*
X125589949Y-93740045D01*
X125468873Y-93817856D01*
X125374623Y-93926626D01*
X125374621Y-93926629D01*
X125332095Y-94019745D01*
X125306983Y-94055912D01*
X124593975Y-94768920D01*
X124541233Y-94800215D01*
X124525019Y-94804976D01*
X124525015Y-94804978D01*
X124403943Y-94882786D01*
X124309693Y-94991556D01*
X124309692Y-94991558D01*
X124249904Y-95122473D01*
X124229423Y-95264930D01*
X113782414Y-95264930D01*
X113800500Y-95150743D01*
X113800500Y-94969257D01*
X113772109Y-94790005D01*
X113772108Y-94790001D01*
X113772108Y-94790000D01*
X113716028Y-94617404D01*
X113671622Y-94530252D01*
X113633634Y-94455696D01*
X113526959Y-94308871D01*
X113398629Y-94180541D01*
X113324340Y-94126567D01*
X113251802Y-94073864D01*
X113241377Y-94068553D01*
X113190581Y-94020580D01*
X113173785Y-93952759D01*
X113196322Y-93886624D01*
X113241376Y-93847583D01*
X113408776Y-93762288D01*
X113593742Y-93627902D01*
X113755402Y-93466242D01*
X113889788Y-93281276D01*
X113993582Y-93077570D01*
X114064234Y-92860128D01*
X114078509Y-92770000D01*
X113090748Y-92770000D01*
X113112518Y-92732292D01*
X113150000Y-92592409D01*
X113150000Y-92447591D01*
X113112518Y-92307708D01*
X113090748Y-92270000D01*
X114078509Y-92270000D01*
X114064234Y-92179871D01*
X114054528Y-92149999D01*
X130049364Y-92149999D01*
X130049364Y-92150000D01*
X130946988Y-92150000D01*
X130914075Y-92207007D01*
X130880000Y-92334174D01*
X130880000Y-92465826D01*
X130914075Y-92592993D01*
X130946988Y-92650000D01*
X130049364Y-92650000D01*
X130106567Y-92863486D01*
X130106570Y-92863492D01*
X130206399Y-93077578D01*
X130341894Y-93271082D01*
X130508917Y-93438105D01*
X130702421Y-93573600D01*
X130916507Y-93673429D01*
X130916516Y-93673433D01*
X131130000Y-93730634D01*
X131130000Y-92833012D01*
X131187007Y-92865925D01*
X131314174Y-92900000D01*
X131445826Y-92900000D01*
X131572993Y-92865925D01*
X131630000Y-92833012D01*
X131630000Y-93730633D01*
X131843483Y-93673433D01*
X131843492Y-93673429D01*
X132057578Y-93573600D01*
X132251082Y-93438105D01*
X132418105Y-93271082D01*
X132553600Y-93077578D01*
X132653429Y-92863492D01*
X132653433Y-92863483D01*
X132686158Y-92741350D01*
X132722522Y-92681690D01*
X132785369Y-92651160D01*
X132854745Y-92659454D01*
X132908623Y-92703939D01*
X132924593Y-92737447D01*
X132944768Y-92803954D01*
X133042315Y-92986450D01*
X133042317Y-92986452D01*
X133173589Y-93146410D01*
X133270209Y-93225702D01*
X133333550Y-93277685D01*
X133516046Y-93375232D01*
X133714066Y-93435300D01*
X133714065Y-93435300D01*
X133732529Y-93437118D01*
X133920000Y-93455583D01*
X134125934Y-93435300D01*
X134323954Y-93375232D01*
X134506450Y-93277685D01*
X134666410Y-93146410D01*
X134797685Y-92986450D01*
X134895232Y-92803954D01*
X134955300Y-92605934D01*
X134975583Y-92400000D01*
X135404417Y-92400000D01*
X135424699Y-92605932D01*
X135424700Y-92605934D01*
X135484768Y-92803954D01*
X135582315Y-92986450D01*
X135582317Y-92986452D01*
X135713589Y-93146410D01*
X135810209Y-93225702D01*
X135873550Y-93277685D01*
X136056046Y-93375232D01*
X136254066Y-93435300D01*
X136254065Y-93435300D01*
X136272529Y-93437118D01*
X136460000Y-93455583D01*
X136665934Y-93435300D01*
X136863954Y-93375232D01*
X137046450Y-93277685D01*
X137206410Y-93146410D01*
X137337685Y-92986450D01*
X137435232Y-92803954D01*
X137495300Y-92605934D01*
X137515583Y-92400000D01*
X137495300Y-92194066D01*
X137435232Y-91996046D01*
X137337685Y-91813550D01*
X137244907Y-91700499D01*
X137206410Y-91653589D01*
X137056121Y-91530252D01*
X137056115Y-91530247D01*
X137949500Y-91530247D01*
X137949500Y-93269752D01*
X137961131Y-93328229D01*
X137961132Y-93328230D01*
X138005447Y-93394552D01*
X138071769Y-93438867D01*
X138071770Y-93438868D01*
X138130247Y-93450499D01*
X138130250Y-93450500D01*
X138130252Y-93450500D01*
X139869750Y-93450500D01*
X139869751Y-93450499D01*
X139884568Y-93447552D01*
X139928229Y-93438868D01*
X139928229Y-93438867D01*
X139928231Y-93438867D01*
X139994552Y-93394552D01*
X140038867Y-93328231D01*
X140038867Y-93328229D01*
X140038868Y-93328229D01*
X140048922Y-93277682D01*
X140050500Y-93269748D01*
X140050500Y-91530252D01*
X140050500Y-91530249D01*
X140050499Y-91530247D01*
X140038868Y-91471770D01*
X140038867Y-91471769D01*
X139994552Y-91405447D01*
X139928230Y-91361132D01*
X139928229Y-91361131D01*
X139869752Y-91349500D01*
X139869748Y-91349500D01*
X138130252Y-91349500D01*
X138130247Y-91349500D01*
X138071770Y-91361131D01*
X138071769Y-91361132D01*
X138005447Y-91405447D01*
X137961132Y-91471769D01*
X137961131Y-91471770D01*
X137949500Y-91530247D01*
X137056115Y-91530247D01*
X137046450Y-91522315D01*
X136863954Y-91424768D01*
X136665934Y-91364700D01*
X136665932Y-91364699D01*
X136665934Y-91364699D01*
X136460000Y-91344417D01*
X136254067Y-91364699D01*
X136056043Y-91424769D01*
X135973304Y-91468995D01*
X135873550Y-91522315D01*
X135873548Y-91522316D01*
X135873547Y-91522317D01*
X135713589Y-91653589D01*
X135582317Y-91813547D01*
X135484769Y-91996043D01*
X135424699Y-92194067D01*
X135404417Y-92400000D01*
X134975583Y-92400000D01*
X134955300Y-92194066D01*
X134895232Y-91996046D01*
X134797685Y-91813550D01*
X134704907Y-91700499D01*
X134666410Y-91653589D01*
X134516121Y-91530252D01*
X134506450Y-91522315D01*
X134323954Y-91424768D01*
X134125934Y-91364700D01*
X134125932Y-91364699D01*
X134125934Y-91364699D01*
X133920000Y-91344417D01*
X133714067Y-91364699D01*
X133516043Y-91424769D01*
X133433304Y-91468995D01*
X133333550Y-91522315D01*
X133333548Y-91522316D01*
X133333547Y-91522317D01*
X133173589Y-91653589D01*
X133042317Y-91813547D01*
X132944767Y-91996046D01*
X132924593Y-92062552D01*
X132886296Y-92120990D01*
X132822483Y-92149447D01*
X132753416Y-92138886D01*
X132701023Y-92092661D01*
X132686158Y-92058649D01*
X132653433Y-91936516D01*
X132653429Y-91936507D01*
X132553600Y-91722422D01*
X132553599Y-91722420D01*
X132418113Y-91528926D01*
X132418108Y-91528920D01*
X132251082Y-91361894D01*
X132057578Y-91226399D01*
X131843492Y-91126570D01*
X131843486Y-91126567D01*
X131630000Y-91069364D01*
X131630000Y-91966988D01*
X131572993Y-91934075D01*
X131445826Y-91900000D01*
X131314174Y-91900000D01*
X131187007Y-91934075D01*
X131130000Y-91966988D01*
X131130000Y-91069364D01*
X131129999Y-91069364D01*
X130916513Y-91126567D01*
X130916507Y-91126570D01*
X130702422Y-91226399D01*
X130702420Y-91226400D01*
X130508926Y-91361886D01*
X130508920Y-91361891D01*
X130341891Y-91528920D01*
X130341886Y-91528926D01*
X130206400Y-91722420D01*
X130206399Y-91722422D01*
X130106570Y-91936507D01*
X130106567Y-91936513D01*
X130049364Y-92149999D01*
X114054528Y-92149999D01*
X113993582Y-91962429D01*
X113889788Y-91758723D01*
X113755402Y-91573757D01*
X113593742Y-91412097D01*
X113408776Y-91277711D01*
X113205068Y-91173917D01*
X112987625Y-91103265D01*
X112987626Y-91103265D01*
X112850000Y-91081467D01*
X112850000Y-92029252D01*
X112812292Y-92007482D01*
X112672409Y-91970000D01*
X112527591Y-91970000D01*
X112387708Y-92007482D01*
X112350000Y-92029252D01*
X112350000Y-91081467D01*
X112212374Y-91103265D01*
X111994931Y-91173917D01*
X111791223Y-91277711D01*
X111606257Y-91412097D01*
X111444597Y-91573757D01*
X111310211Y-91758723D01*
X111206417Y-91962429D01*
X111135765Y-92179871D01*
X111121491Y-92270000D01*
X89800000Y-92270000D01*
X89800000Y-89800000D01*
X150294353Y-89800000D01*
X150314834Y-89942456D01*
X150374622Y-90073371D01*
X150374623Y-90073373D01*
X150468872Y-90182143D01*
X150468874Y-90182144D01*
X150468876Y-90182146D01*
X150589941Y-90259950D01*
X150589944Y-90259952D01*
X150589946Y-90259952D01*
X150589947Y-90259953D01*
X150606158Y-90264712D01*
X150658906Y-90296009D01*
X151706984Y-91344087D01*
X151732097Y-91380256D01*
X151774623Y-91473373D01*
X151868872Y-91582143D01*
X151989947Y-91659953D01*
X151989950Y-91659954D01*
X151989949Y-91659954D01*
X152128036Y-91700499D01*
X152128038Y-91700500D01*
X152128039Y-91700500D01*
X152271962Y-91700500D01*
X152271962Y-91700499D01*
X152410053Y-91659953D01*
X152531128Y-91582143D01*
X152625377Y-91473373D01*
X152627376Y-91468995D01*
X157699499Y-91468995D01*
X157726418Y-91604322D01*
X157726421Y-91604332D01*
X157779221Y-91731804D01*
X157779228Y-91731817D01*
X157855885Y-91846541D01*
X157855888Y-91846545D01*
X157953454Y-91944111D01*
X157953458Y-91944114D01*
X158068182Y-92020771D01*
X158068195Y-92020778D01*
X158159625Y-92058649D01*
X158195672Y-92073580D01*
X158195676Y-92073580D01*
X158195677Y-92073581D01*
X158331004Y-92100500D01*
X158331007Y-92100500D01*
X158468995Y-92100500D01*
X158560041Y-92082389D01*
X158604328Y-92073580D01*
X158731811Y-92020775D01*
X158846542Y-91944114D01*
X158944114Y-91846542D01*
X159020775Y-91731811D01*
X159073580Y-91604328D01*
X159088316Y-91530247D01*
X159100500Y-91468995D01*
X159100500Y-91331004D01*
X159073581Y-91195677D01*
X159073580Y-91195676D01*
X159073580Y-91195672D01*
X159021262Y-91069364D01*
X159020778Y-91068195D01*
X159020771Y-91068182D01*
X158944114Y-90953458D01*
X158944111Y-90953454D01*
X158846545Y-90855888D01*
X158846541Y-90855885D01*
X158731817Y-90779228D01*
X158731804Y-90779221D01*
X158604332Y-90726421D01*
X158604322Y-90726418D01*
X158468995Y-90699500D01*
X158468993Y-90699500D01*
X158331007Y-90699500D01*
X158331005Y-90699500D01*
X158195677Y-90726418D01*
X158195667Y-90726421D01*
X158068195Y-90779221D01*
X158068182Y-90779228D01*
X157953458Y-90855885D01*
X157953454Y-90855888D01*
X157855888Y-90953454D01*
X157855885Y-90953458D01*
X157779228Y-91068182D01*
X157779221Y-91068195D01*
X157726421Y-91195667D01*
X157726418Y-91195677D01*
X157699500Y-91331004D01*
X157699500Y-91331007D01*
X157699500Y-91468993D01*
X157699500Y-91468995D01*
X157699499Y-91468995D01*
X152627376Y-91468995D01*
X152685165Y-91342457D01*
X152705647Y-91200000D01*
X152685165Y-91057543D01*
X152625377Y-90926627D01*
X152531128Y-90817857D01*
X152471009Y-90779221D01*
X152410052Y-90740046D01*
X152393836Y-90735285D01*
X152341092Y-90703989D01*
X151293014Y-89655911D01*
X151267901Y-89619741D01*
X151225379Y-89526630D01*
X151225376Y-89526626D01*
X151131128Y-89417857D01*
X151010053Y-89340047D01*
X151010051Y-89340046D01*
X151010049Y-89340045D01*
X151010050Y-89340045D01*
X150871963Y-89299500D01*
X150871961Y-89299500D01*
X150728039Y-89299500D01*
X150728036Y-89299500D01*
X150589949Y-89340045D01*
X150468873Y-89417856D01*
X150374623Y-89526626D01*
X150374622Y-89526628D01*
X150314834Y-89657543D01*
X150294353Y-89800000D01*
X89800000Y-89800000D01*
X89800000Y-84668995D01*
X157699499Y-84668995D01*
X157726418Y-84804322D01*
X157726421Y-84804332D01*
X157779221Y-84931804D01*
X157779228Y-84931817D01*
X157855885Y-85046541D01*
X157855888Y-85046545D01*
X157953454Y-85144111D01*
X157953458Y-85144114D01*
X158068182Y-85220771D01*
X158068195Y-85220778D01*
X158195667Y-85273578D01*
X158195672Y-85273580D01*
X158195676Y-85273580D01*
X158195677Y-85273581D01*
X158331004Y-85300500D01*
X158331007Y-85300500D01*
X158468995Y-85300500D01*
X158560041Y-85282389D01*
X158604328Y-85273580D01*
X158731811Y-85220775D01*
X158846542Y-85144114D01*
X158944114Y-85046542D01*
X159020775Y-84931811D01*
X159073580Y-84804328D01*
X159100500Y-84668993D01*
X159100500Y-84531007D01*
X159100500Y-84531004D01*
X159073581Y-84395677D01*
X159073580Y-84395676D01*
X159073580Y-84395672D01*
X159073578Y-84395667D01*
X159020778Y-84268195D01*
X159020771Y-84268182D01*
X158944114Y-84153458D01*
X158944111Y-84153454D01*
X158846545Y-84055888D01*
X158846541Y-84055885D01*
X158731817Y-83979228D01*
X158731804Y-83979221D01*
X158604332Y-83926421D01*
X158604322Y-83926418D01*
X158468995Y-83899500D01*
X158468993Y-83899500D01*
X158331007Y-83899500D01*
X158331005Y-83899500D01*
X158195677Y-83926418D01*
X158195667Y-83926421D01*
X158068195Y-83979221D01*
X158068182Y-83979228D01*
X157953458Y-84055885D01*
X157953454Y-84055888D01*
X157855888Y-84153454D01*
X157855885Y-84153458D01*
X157779228Y-84268182D01*
X157779221Y-84268195D01*
X157726421Y-84395667D01*
X157726418Y-84395677D01*
X157699500Y-84531004D01*
X157699500Y-84531007D01*
X157699500Y-84668993D01*
X157699500Y-84668995D01*
X157699499Y-84668995D01*
X89800000Y-84668995D01*
X89800000Y-75800787D01*
X89800009Y-75799267D01*
X89800039Y-75796784D01*
X89801303Y-75693713D01*
X92449500Y-75693713D01*
X92449500Y-75906286D01*
X92482753Y-76116239D01*
X92548444Y-76318414D01*
X92644951Y-76507820D01*
X92769890Y-76679786D01*
X92920213Y-76830109D01*
X93092179Y-76955048D01*
X93092181Y-76955049D01*
X93092184Y-76955051D01*
X93281588Y-77051557D01*
X93483757Y-77117246D01*
X93693713Y-77150500D01*
X93693714Y-77150500D01*
X93906286Y-77150500D01*
X93906287Y-77150500D01*
X94116243Y-77117246D01*
X94318412Y-77051557D01*
X94507816Y-76955051D01*
X94529789Y-76939086D01*
X94679786Y-76830109D01*
X94679788Y-76830106D01*
X94679792Y-76830104D01*
X94830104Y-76679792D01*
X94830106Y-76679788D01*
X94830109Y-76679786D01*
X94955048Y-76507820D01*
X94955047Y-76507820D01*
X94955051Y-76507816D01*
X95051557Y-76318412D01*
X95117246Y-76116243D01*
X95150500Y-75906287D01*
X95150500Y-75693713D01*
X155849500Y-75693713D01*
X155849500Y-75906286D01*
X155882753Y-76116239D01*
X155948444Y-76318414D01*
X156044951Y-76507820D01*
X156169890Y-76679786D01*
X156320213Y-76830109D01*
X156492179Y-76955048D01*
X156492181Y-76955049D01*
X156492184Y-76955051D01*
X156681588Y-77051557D01*
X156883757Y-77117246D01*
X157093713Y-77150500D01*
X157093714Y-77150500D01*
X157306286Y-77150500D01*
X157306287Y-77150500D01*
X157516243Y-77117246D01*
X157718412Y-77051557D01*
X157907816Y-76955051D01*
X157929789Y-76939086D01*
X158079786Y-76830109D01*
X158079788Y-76830106D01*
X158079792Y-76830104D01*
X158230104Y-76679792D01*
X158230106Y-76679788D01*
X158230109Y-76679786D01*
X158355048Y-76507820D01*
X158355047Y-76507820D01*
X158355051Y-76507816D01*
X158451557Y-76318412D01*
X158517246Y-76116243D01*
X158550500Y-75906287D01*
X158550500Y-75693713D01*
X158517246Y-75483757D01*
X158451557Y-75281588D01*
X158355051Y-75092184D01*
X158355049Y-75092181D01*
X158355048Y-75092179D01*
X158230109Y-74920213D01*
X158079786Y-74769890D01*
X157907820Y-74644951D01*
X157718414Y-74548444D01*
X157718413Y-74548443D01*
X157718412Y-74548443D01*
X157516243Y-74482754D01*
X157516241Y-74482753D01*
X157516240Y-74482753D01*
X157354957Y-74457208D01*
X157306287Y-74449500D01*
X157093713Y-74449500D01*
X157045042Y-74457208D01*
X156883760Y-74482753D01*
X156681585Y-74548444D01*
X156492179Y-74644951D01*
X156320213Y-74769890D01*
X156169890Y-74920213D01*
X156044951Y-75092179D01*
X155948444Y-75281585D01*
X155882753Y-75483760D01*
X155849500Y-75693713D01*
X95150500Y-75693713D01*
X95117246Y-75483757D01*
X95051557Y-75281588D01*
X94955051Y-75092184D01*
X94955049Y-75092181D01*
X94955048Y-75092179D01*
X94830109Y-74920213D01*
X94679786Y-74769890D01*
X94507820Y-74644951D01*
X94318414Y-74548444D01*
X94318413Y-74548443D01*
X94318412Y-74548443D01*
X94116243Y-74482754D01*
X94116241Y-74482753D01*
X94116240Y-74482753D01*
X93954957Y-74457208D01*
X93906287Y-74449500D01*
X93693713Y-74449500D01*
X93645042Y-74457208D01*
X93483760Y-74482753D01*
X93281585Y-74548444D01*
X93092179Y-74644951D01*
X92920213Y-74769890D01*
X92769890Y-74920213D01*
X92644951Y-75092179D01*
X92548444Y-75281585D01*
X92482753Y-75483760D01*
X92449500Y-75693713D01*
X89801303Y-75693713D01*
X89802343Y-75608922D01*
X89802930Y-75598320D01*
X89840312Y-75218772D01*
X89842097Y-75206744D01*
X89864886Y-75092179D01*
X89916346Y-74833468D01*
X89919301Y-74821670D01*
X89935009Y-74769890D01*
X90029787Y-74457447D01*
X90033885Y-74445997D01*
X90179532Y-74094372D01*
X90184730Y-74083380D01*
X90364152Y-73747708D01*
X90370390Y-73737300D01*
X90581852Y-73420825D01*
X90589091Y-73411064D01*
X90830555Y-73116838D01*
X90838707Y-73107844D01*
X91107844Y-72838707D01*
X91116838Y-72830555D01*
X91411064Y-72589091D01*
X91420825Y-72581852D01*
X91737300Y-72370390D01*
X91747708Y-72364152D01*
X92083380Y-72184730D01*
X92094363Y-72179535D01*
X92446004Y-72033882D01*
X92457447Y-72029787D01*
X92821677Y-71919299D01*
X92833468Y-71916346D01*
X93206753Y-71842095D01*
X93218772Y-71840312D01*
X93598320Y-71802930D01*
X93608922Y-71802343D01*
X93796784Y-71800039D01*
X93799267Y-71800009D01*
X93800787Y-71800000D01*
X157199213Y-71800000D01*
X157200733Y-71800008D01*
G37*
%TD.AperFunction*%
%TD*%
M02*
