%TF.GenerationSoftware,KiCad,Pcbnew,8.0.8*%
%TF.CreationDate,2025-03-25T11:50:14+11:00*%
%TF.ProjectId,STM32BMS,53544d33-3242-44d5-932e-6b696361645f,rev?*%
%TF.SameCoordinates,Original*%
%TF.FileFunction,Paste,Top*%
%TF.FilePolarity,Positive*%
%FSLAX46Y46*%
G04 Gerber Fmt 4.6, Leading zero omitted, Abs format (unit mm)*
G04 Created by KiCad (PCBNEW 8.0.8) date 2025-03-25 11:50:14*
%MOMM*%
%LPD*%
G01*
G04 APERTURE LIST*
G04 Aperture macros list*
%AMRoundRect*
0 Rectangle with rounded corners*
0 $1 Rounding radius*
0 $2 $3 $4 $5 $6 $7 $8 $9 X,Y pos of 4 corners*
0 Add a 4 corners polygon primitive as box body*
4,1,4,$2,$3,$4,$5,$6,$7,$8,$9,$2,$3,0*
0 Add four circle primitives for the rounded corners*
1,1,$1+$1,$2,$3*
1,1,$1+$1,$4,$5*
1,1,$1+$1,$6,$7*
1,1,$1+$1,$8,$9*
0 Add four rect primitives between the rounded corners*
20,1,$1+$1,$2,$3,$4,$5,0*
20,1,$1+$1,$4,$5,$6,$7,0*
20,1,$1+$1,$6,$7,$8,$9,0*
20,1,$1+$1,$8,$9,$2,$3,0*%
G04 Aperture macros list end*
%ADD10RoundRect,0.135000X-0.135000X-0.185000X0.135000X-0.185000X0.135000X0.185000X-0.135000X0.185000X0*%
%ADD11RoundRect,0.140000X0.140000X0.170000X-0.140000X0.170000X-0.140000X-0.170000X0.140000X-0.170000X0*%
%ADD12RoundRect,0.135000X0.185000X-0.135000X0.185000X0.135000X-0.185000X0.135000X-0.185000X-0.135000X0*%
%ADD13RoundRect,0.135000X-0.185000X0.135000X-0.185000X-0.135000X0.185000X-0.135000X0.185000X0.135000X0*%
%ADD14RoundRect,0.250000X0.475000X-0.250000X0.475000X0.250000X-0.475000X0.250000X-0.475000X-0.250000X0*%
%ADD15RoundRect,0.075000X-0.700000X-0.075000X0.700000X-0.075000X0.700000X0.075000X-0.700000X0.075000X0*%
%ADD16RoundRect,0.075000X-0.075000X-0.700000X0.075000X-0.700000X0.075000X0.700000X-0.075000X0.700000X0*%
%ADD17RoundRect,0.140000X-0.170000X0.140000X-0.170000X-0.140000X0.170000X-0.140000X0.170000X0.140000X0*%
%ADD18R,1.300000X0.450000*%
%ADD19RoundRect,0.250000X-0.250000X-0.475000X0.250000X-0.475000X0.250000X0.475000X-0.250000X0.475000X0*%
%ADD20RoundRect,0.140000X0.170000X-0.140000X0.170000X0.140000X-0.170000X0.140000X-0.170000X-0.140000X0*%
%ADD21RoundRect,0.150000X-0.825000X-0.150000X0.825000X-0.150000X0.825000X0.150000X-0.825000X0.150000X0*%
%ADD22RoundRect,0.250000X-0.450000X0.262500X-0.450000X-0.262500X0.450000X-0.262500X0.450000X0.262500X0*%
%ADD23RoundRect,0.140000X-0.140000X-0.170000X0.140000X-0.170000X0.140000X0.170000X-0.140000X0.170000X0*%
%ADD24RoundRect,0.135000X0.135000X0.185000X-0.135000X0.185000X-0.135000X-0.185000X0.135000X-0.185000X0*%
%ADD25RoundRect,0.218750X-0.256250X0.218750X-0.256250X-0.218750X0.256250X-0.218750X0.256250X0.218750X0*%
%ADD26RoundRect,0.250000X1.000000X-0.375000X1.000000X0.375000X-1.000000X0.375000X-1.000000X-0.375000X0*%
%ADD27R,1.200000X1.400000*%
%ADD28RoundRect,0.225000X-0.225000X-0.250000X0.225000X-0.250000X0.225000X0.250000X-0.225000X0.250000X0*%
%ADD29RoundRect,0.375000X-0.375000X0.625000X-0.375000X-0.625000X0.375000X-0.625000X0.375000X0.625000X0*%
%ADD30RoundRect,0.500000X-1.400000X0.500000X-1.400000X-0.500000X1.400000X-0.500000X1.400000X0.500000X0*%
%ADD31R,0.750000X1.000000*%
G04 APERTURE END LIST*
D10*
%TO.C,R10*%
X113060000Y-111600000D03*
X114080000Y-111600000D03*
%TD*%
%TO.C,R15*%
X118380000Y-114410000D03*
X119400000Y-114410000D03*
%TD*%
D11*
%TO.C,C9*%
X127800000Y-113800000D03*
X126840000Y-113800000D03*
%TD*%
D12*
%TO.C,R9*%
X108800000Y-113020000D03*
X108800000Y-112000000D03*
%TD*%
D13*
%TO.C,R6*%
X126200000Y-135890000D03*
X126200000Y-136910000D03*
%TD*%
D14*
%TO.C,C14*%
X152300000Y-114907500D03*
X152300000Y-113007500D03*
%TD*%
D15*
%TO.C,U1*%
X130125000Y-102207500D03*
X130125000Y-102707500D03*
X130125000Y-103207500D03*
X130125000Y-103707500D03*
X130125000Y-104207500D03*
X130125000Y-104707500D03*
X130125000Y-105207500D03*
X130125000Y-105707500D03*
X130125000Y-106207500D03*
X130125000Y-106707500D03*
X130125000Y-107207500D03*
X130125000Y-107707500D03*
X130125000Y-108207500D03*
X130125000Y-108707500D03*
X130125000Y-109207500D03*
X130125000Y-109707500D03*
D16*
X132050000Y-111632500D03*
X132550000Y-111632500D03*
X133050000Y-111632500D03*
X133550000Y-111632500D03*
X134050000Y-111632500D03*
X134550000Y-111632500D03*
X135050000Y-111632500D03*
X135550000Y-111632500D03*
X136050000Y-111632500D03*
X136550000Y-111632500D03*
X137050000Y-111632500D03*
X137550000Y-111632500D03*
X138050000Y-111632500D03*
X138550000Y-111632500D03*
X139050000Y-111632500D03*
X139550000Y-111632500D03*
D15*
X141475000Y-109707500D03*
X141475000Y-109207500D03*
X141475000Y-108707500D03*
X141475000Y-108207500D03*
X141475000Y-107707500D03*
X141475000Y-107207500D03*
X141475000Y-106707500D03*
X141475000Y-106207500D03*
X141475000Y-105707500D03*
X141475000Y-105207500D03*
X141475000Y-104707500D03*
X141475000Y-104207500D03*
X141475000Y-103707500D03*
X141475000Y-103207500D03*
X141475000Y-102707500D03*
X141475000Y-102207500D03*
D16*
X139550000Y-100282500D03*
X139050000Y-100282500D03*
X138550000Y-100282500D03*
X138050000Y-100282500D03*
X137550000Y-100282500D03*
X137050000Y-100282500D03*
X136550000Y-100282500D03*
X136050000Y-100282500D03*
X135550000Y-100282500D03*
X135050000Y-100282500D03*
X134550000Y-100282500D03*
X134050000Y-100282500D03*
X133550000Y-100282500D03*
X133050000Y-100282500D03*
X132550000Y-100282500D03*
X132050000Y-100282500D03*
%TD*%
D10*
%TO.C,R11*%
X140780000Y-121400000D03*
X141800000Y-121400000D03*
%TD*%
D17*
%TO.C,C17*%
X118850000Y-105312500D03*
X118850000Y-106272500D03*
%TD*%
D18*
%TO.C,J1*%
X155545000Y-104905000D03*
X155545000Y-104255000D03*
X155545000Y-103605000D03*
X155545000Y-102955000D03*
X155545000Y-102305000D03*
%TD*%
D13*
%TO.C,R14*%
X116250000Y-105282500D03*
X116250000Y-106302500D03*
%TD*%
D19*
%TO.C,C13*%
X145850000Y-108400000D03*
X147750000Y-108400000D03*
%TD*%
D10*
%TO.C,R12*%
X120490000Y-94400000D03*
X121510000Y-94400000D03*
%TD*%
D20*
%TO.C,C7*%
X128200000Y-109200000D03*
X128200000Y-108240000D03*
%TD*%
%TO.C,C11*%
X125400000Y-102800000D03*
X125400000Y-101840000D03*
%TD*%
D21*
%TO.C,U3*%
X112925000Y-119095000D03*
X112925000Y-120365000D03*
X112925000Y-121635000D03*
X112925000Y-122905000D03*
X117875000Y-122905000D03*
X117875000Y-121635000D03*
X117875000Y-120365000D03*
X117875000Y-119095000D03*
%TD*%
D20*
%TO.C,C4*%
X127600000Y-103160000D03*
X127600000Y-102200000D03*
%TD*%
D11*
%TO.C,C15*%
X114080000Y-110200000D03*
X113120000Y-110200000D03*
%TD*%
D12*
%TO.C,R5*%
X128800000Y-130620000D03*
X128800000Y-129600000D03*
%TD*%
D22*
%TO.C,FB1*%
X129300000Y-111257500D03*
X129300000Y-113082500D03*
%TD*%
D20*
%TO.C,C16*%
X120200000Y-122800000D03*
X120200000Y-121840000D03*
%TD*%
D23*
%TO.C,C10*%
X131880000Y-113477500D03*
X132840000Y-113477500D03*
%TD*%
D24*
%TO.C,R7*%
X118510000Y-94400000D03*
X117490000Y-94400000D03*
%TD*%
D25*
%TO.C,D1*%
X155800000Y-113957500D03*
X155800000Y-115532500D03*
%TD*%
D10*
%TO.C,R4*%
X134980000Y-96400000D03*
X136000000Y-96400000D03*
%TD*%
D26*
%TO.C,SW1*%
X155650000Y-90500000D03*
X155650000Y-88000000D03*
X155650000Y-85500000D03*
%TD*%
D10*
%TO.C,R3*%
X137890000Y-96310000D03*
X138910000Y-96310000D03*
%TD*%
D27*
%TO.C,Y1*%
X121550000Y-102507500D03*
X121550000Y-104707500D03*
X123250000Y-104707500D03*
X123250000Y-102507500D03*
%TD*%
D23*
%TO.C,C1*%
X131420000Y-98457500D03*
X132380000Y-98457500D03*
%TD*%
D11*
%TO.C,C8*%
X127800000Y-111382500D03*
X126840000Y-111382500D03*
%TD*%
D10*
%TO.C,R16*%
X118380000Y-116400000D03*
X119400000Y-116400000D03*
%TD*%
D23*
%TO.C,C5*%
X131440000Y-96957500D03*
X132400000Y-96957500D03*
%TD*%
D13*
%TO.C,R13*%
X148400000Y-102490000D03*
X148400000Y-103510000D03*
%TD*%
D24*
%TO.C,R1*%
X146220000Y-93000000D03*
X145200000Y-93000000D03*
%TD*%
D28*
%TO.C,C6*%
X125450000Y-98157500D03*
X127000000Y-98157500D03*
%TD*%
D29*
%TO.C,U2*%
X149100000Y-110807500D03*
X146800000Y-110807500D03*
D30*
X146800000Y-117107500D03*
D29*
X144500000Y-110807500D03*
%TD*%
D10*
%TO.C,R2*%
X155580000Y-110200000D03*
X156600000Y-110200000D03*
%TD*%
%TO.C,R8*%
X113090000Y-114200000D03*
X114110000Y-114200000D03*
%TD*%
D31*
%TO.C,SW2*%
X147925000Y-130200000D03*
X147925000Y-124200000D03*
X151675000Y-130200000D03*
X151675000Y-124200000D03*
%TD*%
D17*
%TO.C,C2*%
X143300000Y-101957500D03*
X143300000Y-102917500D03*
%TD*%
D20*
%TO.C,C12*%
X125400000Y-105200000D03*
X125400000Y-104240000D03*
%TD*%
D11*
%TO.C,C3*%
X139800000Y-113457500D03*
X138840000Y-113457500D03*
%TD*%
M02*
