%TF.GenerationSoftware,KiCad,Pcbnew,8.0.8*%
%TF.CreationDate,2025-03-25T11:50:14+11:00*%
%TF.ProjectId,STM32BMS,53544d33-3242-44d5-932e-6b696361645f,rev?*%
%TF.SameCoordinates,Original*%
%TF.FileFunction,Copper,L1,Top*%
%TF.FilePolarity,Positive*%
%FSLAX46Y46*%
G04 Gerber Fmt 4.6, Leading zero omitted, Abs format (unit mm)*
G04 Created by KiCad (PCBNEW 8.0.8) date 2025-03-25 11:50:14*
%MOMM*%
%LPD*%
G01*
G04 APERTURE LIST*
G04 Aperture macros list*
%AMRoundRect*
0 Rectangle with rounded corners*
0 $1 Rounding radius*
0 $2 $3 $4 $5 $6 $7 $8 $9 X,Y pos of 4 corners*
0 Add a 4 corners polygon primitive as box body*
4,1,4,$2,$3,$4,$5,$6,$7,$8,$9,$2,$3,0*
0 Add four circle primitives for the rounded corners*
1,1,$1+$1,$2,$3*
1,1,$1+$1,$4,$5*
1,1,$1+$1,$6,$7*
1,1,$1+$1,$8,$9*
0 Add four rect primitives between the rounded corners*
20,1,$1+$1,$2,$3,$4,$5,0*
20,1,$1+$1,$4,$5,$6,$7,0*
20,1,$1+$1,$6,$7,$8,$9,0*
20,1,$1+$1,$8,$9,$2,$3,0*%
G04 Aperture macros list end*
%TA.AperFunction,ComponentPad*%
%ADD10R,1.700000X1.700000*%
%TD*%
%TA.AperFunction,ComponentPad*%
%ADD11O,1.700000X1.700000*%
%TD*%
%TA.AperFunction,ComponentPad*%
%ADD12R,2.200000X2.200000*%
%TD*%
%TA.AperFunction,ComponentPad*%
%ADD13O,2.200000X2.200000*%
%TD*%
%TA.AperFunction,SMDPad,CuDef*%
%ADD14RoundRect,0.135000X-0.135000X-0.185000X0.135000X-0.185000X0.135000X0.185000X-0.135000X0.185000X0*%
%TD*%
%TA.AperFunction,SMDPad,CuDef*%
%ADD15RoundRect,0.140000X0.140000X0.170000X-0.140000X0.170000X-0.140000X-0.170000X0.140000X-0.170000X0*%
%TD*%
%TA.AperFunction,ComponentPad*%
%ADD16R,1.050000X1.500000*%
%TD*%
%TA.AperFunction,ComponentPad*%
%ADD17O,1.050000X1.500000*%
%TD*%
%TA.AperFunction,SMDPad,CuDef*%
%ADD18RoundRect,0.135000X0.185000X-0.135000X0.185000X0.135000X-0.185000X0.135000X-0.185000X-0.135000X0*%
%TD*%
%TA.AperFunction,SMDPad,CuDef*%
%ADD19RoundRect,0.135000X-0.185000X0.135000X-0.185000X-0.135000X0.185000X-0.135000X0.185000X0.135000X0*%
%TD*%
%TA.AperFunction,SMDPad,CuDef*%
%ADD20RoundRect,0.250000X0.475000X-0.250000X0.475000X0.250000X-0.475000X0.250000X-0.475000X-0.250000X0*%
%TD*%
%TA.AperFunction,SMDPad,CuDef*%
%ADD21RoundRect,0.075000X-0.700000X-0.075000X0.700000X-0.075000X0.700000X0.075000X-0.700000X0.075000X0*%
%TD*%
%TA.AperFunction,SMDPad,CuDef*%
%ADD22RoundRect,0.075000X-0.075000X-0.700000X0.075000X-0.700000X0.075000X0.700000X-0.075000X0.700000X0*%
%TD*%
%TA.AperFunction,SMDPad,CuDef*%
%ADD23RoundRect,0.140000X-0.170000X0.140000X-0.170000X-0.140000X0.170000X-0.140000X0.170000X0.140000X0*%
%TD*%
%TA.AperFunction,SMDPad,CuDef*%
%ADD24R,1.300000X0.450000*%
%TD*%
%TA.AperFunction,HeatsinkPad*%
%ADD25O,1.800000X1.150000*%
%TD*%
%TA.AperFunction,HeatsinkPad*%
%ADD26O,2.000000X1.450000*%
%TD*%
%TA.AperFunction,SMDPad,CuDef*%
%ADD27RoundRect,0.250000X-0.250000X-0.475000X0.250000X-0.475000X0.250000X0.475000X-0.250000X0.475000X0*%
%TD*%
%TA.AperFunction,ComponentPad*%
%ADD28R,1.905000X2.000000*%
%TD*%
%TA.AperFunction,ComponentPad*%
%ADD29O,1.905000X2.000000*%
%TD*%
%TA.AperFunction,ComponentPad*%
%ADD30R,2.000000X1.905000*%
%TD*%
%TA.AperFunction,ComponentPad*%
%ADD31O,2.000000X1.905000*%
%TD*%
%TA.AperFunction,SMDPad,CuDef*%
%ADD32RoundRect,0.140000X0.170000X-0.140000X0.170000X0.140000X-0.170000X0.140000X-0.170000X-0.140000X0*%
%TD*%
%TA.AperFunction,SMDPad,CuDef*%
%ADD33RoundRect,0.150000X-0.825000X-0.150000X0.825000X-0.150000X0.825000X0.150000X-0.825000X0.150000X0*%
%TD*%
%TA.AperFunction,SMDPad,CuDef*%
%ADD34RoundRect,0.250000X-0.450000X0.262500X-0.450000X-0.262500X0.450000X-0.262500X0.450000X0.262500X0*%
%TD*%
%TA.AperFunction,SMDPad,CuDef*%
%ADD35RoundRect,0.140000X-0.140000X-0.170000X0.140000X-0.170000X0.140000X0.170000X-0.140000X0.170000X0*%
%TD*%
%TA.AperFunction,SMDPad,CuDef*%
%ADD36RoundRect,0.135000X0.135000X0.185000X-0.135000X0.185000X-0.135000X-0.185000X0.135000X-0.185000X0*%
%TD*%
%TA.AperFunction,SMDPad,CuDef*%
%ADD37RoundRect,0.218750X-0.256250X0.218750X-0.256250X-0.218750X0.256250X-0.218750X0.256250X0.218750X0*%
%TD*%
%TA.AperFunction,SMDPad,CuDef*%
%ADD38RoundRect,0.250000X1.000000X-0.375000X1.000000X0.375000X-1.000000X0.375000X-1.000000X-0.375000X0*%
%TD*%
%TA.AperFunction,SMDPad,CuDef*%
%ADD39R,1.200000X1.400000*%
%TD*%
%TA.AperFunction,SMDPad,CuDef*%
%ADD40RoundRect,0.225000X-0.225000X-0.250000X0.225000X-0.250000X0.225000X0.250000X-0.225000X0.250000X0*%
%TD*%
%TA.AperFunction,SMDPad,CuDef*%
%ADD41RoundRect,0.375000X-0.375000X0.625000X-0.375000X-0.625000X0.375000X-0.625000X0.375000X0.625000X0*%
%TD*%
%TA.AperFunction,SMDPad,CuDef*%
%ADD42RoundRect,0.500000X-1.400000X0.500000X-1.400000X-0.500000X1.400000X-0.500000X1.400000X0.500000X0*%
%TD*%
%TA.AperFunction,SMDPad,CuDef*%
%ADD43R,0.750000X1.000000*%
%TD*%
%TA.AperFunction,ViaPad*%
%ADD44C,0.600000*%
%TD*%
%TA.AperFunction,ViaPad*%
%ADD45C,0.700000*%
%TD*%
%TA.AperFunction,Conductor*%
%ADD46C,0.500000*%
%TD*%
%TA.AperFunction,Conductor*%
%ADD47C,0.300000*%
%TD*%
%TA.AperFunction,Conductor*%
%ADD48C,0.200000*%
%TD*%
G04 APERTURE END LIST*
D10*
%TO.P,BT1,1,1*%
%TO.N,Net-(Q1-D)*%
X94800000Y-111200000D03*
D11*
%TO.P,BT1,2,2*%
%TO.N,Net-(BT1-Pad2)*%
X94800000Y-113740000D03*
%TD*%
D12*
%TO.P,D2,1,K*%
%TO.N,Net-(D2-K)*%
X112920000Y-126200000D03*
D13*
%TO.P,D2,2,A*%
%TO.N,VBUS*%
X123080000Y-126200000D03*
%TD*%
D14*
%TO.P,R10,1*%
%TO.N,Net-(R10-Pad1)*%
X113060000Y-111600000D03*
%TO.P,R10,2*%
%TO.N,/ADC2_IN*%
X114080000Y-111600000D03*
%TD*%
%TO.P,R15,1*%
%TO.N,Net-(U3-VIOUT)*%
X118380000Y-114410000D03*
%TO.P,R15,2*%
%TO.N,/ADC1_IN*%
X119400000Y-114410000D03*
%TD*%
D15*
%TO.P,C9,1*%
%TO.N,+3.3V*%
X127800000Y-113800000D03*
%TO.P,C9,2*%
%TO.N,GND*%
X126840000Y-113800000D03*
%TD*%
D16*
%TO.P,U4,1,VCC*%
%TO.N,+3.3V*%
X109260000Y-105800000D03*
D17*
%TO.P,U4,2,GND*%
%TO.N,GND*%
X110530000Y-105800000D03*
%TO.P,U4,3,OUT*%
%TO.N,Net-(U4-OUT)*%
X111800000Y-105800000D03*
%TD*%
D18*
%TO.P,R9,1*%
%TO.N,Net-(Q1-D)*%
X108800000Y-113020000D03*
%TO.P,R9,2*%
%TO.N,Net-(R10-Pad1)*%
X108800000Y-112000000D03*
%TD*%
D19*
%TO.P,R6,1*%
%TO.N,Net-(Q3-G)*%
X126200000Y-135890000D03*
%TO.P,R6,2*%
%TO.N,Net-(Q1-D)*%
X126200000Y-136910000D03*
%TD*%
D20*
%TO.P,C14,1*%
%TO.N,+3.3V*%
X152300000Y-114907500D03*
%TO.P,C14,2*%
%TO.N,GND*%
X152300000Y-113007500D03*
%TD*%
D21*
%TO.P,U1,1,VBAT*%
%TO.N,+3.3V*%
X130125000Y-102207500D03*
%TO.P,U1,2,PC13*%
%TO.N,unconnected-(U1-PC13-Pad2)*%
X130125000Y-102707500D03*
%TO.P,U1,3,PC14*%
%TO.N,unconnected-(U1-PC14-Pad3)*%
X130125000Y-103207500D03*
%TO.P,U1,4,PC15*%
%TO.N,unconnected-(U1-PC15-Pad4)*%
X130125000Y-103707500D03*
%TO.P,U1,5,PH0*%
%TO.N,/HSE_IN*%
X130125000Y-104207500D03*
%TO.P,U1,6,PH1*%
%TO.N,/HSE_OUT*%
X130125000Y-104707500D03*
%TO.P,U1,7,NRST*%
%TO.N,/NRST*%
X130125000Y-105207500D03*
%TO.P,U1,8,PC0*%
%TO.N,unconnected-(U1-PC0-Pad8)*%
X130125000Y-105707500D03*
%TO.P,U1,9,PC1*%
%TO.N,/ADC3_IN*%
X130125000Y-106207500D03*
%TO.P,U1,10,PC2*%
%TO.N,/ADC2_IN*%
X130125000Y-106707500D03*
%TO.P,U1,11,PC3*%
%TO.N,/ADC1_IN*%
X130125000Y-107207500D03*
%TO.P,U1,12,VSSA*%
%TO.N,GND*%
X130125000Y-107707500D03*
%TO.P,U1,13,VDDA*%
%TO.N,+3.3VA*%
X130125000Y-108207500D03*
%TO.P,U1,14,PA0*%
%TO.N,unconnected-(U1-PA0-Pad14)*%
X130125000Y-108707500D03*
%TO.P,U1,15,PA1*%
%TO.N,unconnected-(U1-PA1-Pad15)*%
X130125000Y-109207500D03*
%TO.P,U1,16,PA2*%
%TO.N,unconnected-(U1-PA2-Pad16)*%
X130125000Y-109707500D03*
D22*
%TO.P,U1,17,PA3*%
%TO.N,unconnected-(U1-PA3-Pad17)*%
X132050000Y-111632500D03*
%TO.P,U1,18,VSS*%
%TO.N,GND*%
X132550000Y-111632500D03*
%TO.P,U1,19,VDD*%
%TO.N,+3.3V*%
X133050000Y-111632500D03*
%TO.P,U1,20,PA4*%
%TO.N,unconnected-(U1-PA4-Pad20)*%
X133550000Y-111632500D03*
%TO.P,U1,21,PA5*%
%TO.N,unconnected-(U1-PA5-Pad21)*%
X134050000Y-111632500D03*
%TO.P,U1,22,PA6*%
%TO.N,unconnected-(U1-PA6-Pad22)*%
X134550000Y-111632500D03*
%TO.P,U1,23,PA7*%
%TO.N,unconnected-(U1-PA7-Pad23)*%
X135050000Y-111632500D03*
%TO.P,U1,24,PC4*%
%TO.N,unconnected-(U1-PC4-Pad24)*%
X135550000Y-111632500D03*
%TO.P,U1,25,PC5*%
%TO.N,unconnected-(U1-PC5-Pad25)*%
X136050000Y-111632500D03*
%TO.P,U1,26,PB0*%
%TO.N,/IO_DISCHARGE*%
X136550000Y-111632500D03*
%TO.P,U1,27,PB1*%
%TO.N,unconnected-(U1-PB1-Pad27)*%
X137050000Y-111632500D03*
%TO.P,U1,28,PB2*%
%TO.N,unconnected-(U1-PB2-Pad28)*%
X137550000Y-111632500D03*
%TO.P,U1,29,PB10*%
%TO.N,Net-(U1-PB10)*%
X138050000Y-111632500D03*
%TO.P,U1,30,VCAP_1*%
%TO.N,unconnected-(U1-VCAP_1-Pad30)*%
X138550000Y-111632500D03*
%TO.P,U1,31,VSS*%
%TO.N,GND*%
X139050000Y-111632500D03*
%TO.P,U1,32,VDD*%
%TO.N,+3.3V*%
X139550000Y-111632500D03*
D21*
%TO.P,U1,33,PB12*%
%TO.N,unconnected-(U1-PB12-Pad33)*%
X141475000Y-109707500D03*
%TO.P,U1,34,PB13*%
%TO.N,unconnected-(U1-PB13-Pad34)*%
X141475000Y-109207500D03*
%TO.P,U1,35,PB14*%
%TO.N,unconnected-(U1-PB14-Pad35)*%
X141475000Y-108707500D03*
%TO.P,U1,36,PB15*%
%TO.N,unconnected-(U1-PB15-Pad36)*%
X141475000Y-108207500D03*
%TO.P,U1,37,PC6*%
%TO.N,unconnected-(U1-PC6-Pad37)*%
X141475000Y-107707500D03*
%TO.P,U1,38,PC7*%
%TO.N,unconnected-(U1-PC7-Pad38)*%
X141475000Y-107207500D03*
%TO.P,U1,39,PC8*%
%TO.N,unconnected-(U1-PC8-Pad39)*%
X141475000Y-106707500D03*
%TO.P,U1,40,PC9*%
%TO.N,unconnected-(U1-PC9-Pad40)*%
X141475000Y-106207500D03*
%TO.P,U1,41,PA8*%
%TO.N,unconnected-(U1-PA8-Pad41)*%
X141475000Y-105707500D03*
%TO.P,U1,42,PA9*%
%TO.N,unconnected-(U1-PA9-Pad42)*%
X141475000Y-105207500D03*
%TO.P,U1,43,PA10*%
%TO.N,unconnected-(U1-PA10-Pad43)*%
X141475000Y-104707500D03*
%TO.P,U1,44,PA11*%
%TO.N,/USB_D-*%
X141475000Y-104207500D03*
%TO.P,U1,45,PA12*%
%TO.N,/USB_D+*%
X141475000Y-103707500D03*
%TO.P,U1,46,PA13*%
%TO.N,/SWDIO*%
X141475000Y-103207500D03*
%TO.P,U1,47,VSS*%
%TO.N,GND*%
X141475000Y-102707500D03*
%TO.P,U1,48,VDD*%
%TO.N,+3.3V*%
X141475000Y-102207500D03*
D22*
%TO.P,U1,49,PA14*%
%TO.N,/SWCLK*%
X139550000Y-100282500D03*
%TO.P,U1,50,PA15*%
%TO.N,unconnected-(U1-PA15-Pad50)*%
X139050000Y-100282500D03*
%TO.P,U1,51,PC10*%
%TO.N,unconnected-(U1-PC10-Pad51)*%
X138550000Y-100282500D03*
%TO.P,U1,52,PC11*%
%TO.N,unconnected-(U1-PC11-Pad52)*%
X138050000Y-100282500D03*
%TO.P,U1,53,PC12*%
%TO.N,unconnected-(U1-PC12-Pad53)*%
X137550000Y-100282500D03*
%TO.P,U1,54,PD2*%
%TO.N,unconnected-(U1-PD2-Pad54)*%
X137050000Y-100282500D03*
%TO.P,U1,55,PB3*%
%TO.N,unconnected-(U1-PB3-Pad55)*%
X136550000Y-100282500D03*
%TO.P,U1,56,PB4*%
%TO.N,unconnected-(U1-PB4-Pad56)*%
X136050000Y-100282500D03*
%TO.P,U1,57,PB5*%
%TO.N,unconnected-(U1-PB5-Pad57)*%
X135550000Y-100282500D03*
%TO.P,U1,58,PB6*%
%TO.N,unconnected-(U1-PB6-Pad58)*%
X135050000Y-100282500D03*
%TO.P,U1,59,PB7*%
%TO.N,/IO_CHARGE*%
X134550000Y-100282500D03*
%TO.P,U1,60,BOOT0*%
%TO.N,/BOOT0*%
X134050000Y-100282500D03*
%TO.P,U1,61,PB8*%
%TO.N,/I2C_SCL*%
X133550000Y-100282500D03*
%TO.P,U1,62,PB9*%
%TO.N,/I2C_SDA*%
X133050000Y-100282500D03*
%TO.P,U1,63,VSS*%
%TO.N,GND*%
X132550000Y-100282500D03*
%TO.P,U1,64,VDD*%
%TO.N,+3.3V*%
X132050000Y-100282500D03*
%TD*%
D14*
%TO.P,R11,1*%
%TO.N,Net-(U1-PB10)*%
X140780000Y-121400000D03*
%TO.P,R11,2*%
%TO.N,+3.3V*%
X141800000Y-121400000D03*
%TD*%
D23*
%TO.P,C17,1*%
%TO.N,GND*%
X118850000Y-105312500D03*
%TO.P,C17,2*%
%TO.N,/ADC3_IN*%
X118850000Y-106272500D03*
%TD*%
D24*
%TO.P,J1,1,VBUS*%
%TO.N,VBUS*%
X155545000Y-104905000D03*
%TO.P,J1,2,D-*%
%TO.N,/USB_D-*%
X155545000Y-104255000D03*
%TO.P,J1,3,D+*%
%TO.N,/USB_D+*%
X155545000Y-103605000D03*
%TO.P,J1,4,ID*%
%TO.N,unconnected-(J1-ID-Pad4)*%
X155545000Y-102955000D03*
%TO.P,J1,5,GND*%
%TO.N,GND*%
X155545000Y-102305000D03*
D25*
%TO.P,J1,6,Shield*%
%TO.N,unconnected-(J1-Shield-Pad6)_1*%
X159395000Y-107480000D03*
D26*
%TO.N,unconnected-(J1-Shield-Pad6)_3*%
X155595000Y-107330000D03*
%TO.N,unconnected-(J1-Shield-Pad6)_2*%
X155595000Y-99880000D03*
D25*
%TO.N,unconnected-(J1-Shield-Pad6)*%
X159395000Y-99730000D03*
%TD*%
D19*
%TO.P,R14,1*%
%TO.N,Net-(U4-OUT)*%
X116250000Y-105282500D03*
%TO.P,R14,2*%
%TO.N,/ADC3_IN*%
X116250000Y-106302500D03*
%TD*%
D27*
%TO.P,C13,1*%
%TO.N,VBUS*%
X145850000Y-108400000D03*
%TO.P,C13,2*%
%TO.N,GND*%
X147750000Y-108400000D03*
%TD*%
D14*
%TO.P,R12,1*%
%TO.N,Net-(Q1-G)*%
X120490000Y-94400000D03*
%TO.P,R12,2*%
%TO.N,/IO_CHARGE*%
X121510000Y-94400000D03*
%TD*%
D28*
%TO.P,Q3,1,G*%
%TO.N,Net-(Q3-G)*%
X116000000Y-136600000D03*
D29*
%TO.P,Q3,2,D*%
%TO.N,Net-(J4-Pin_2)*%
X113460000Y-136600000D03*
%TO.P,Q3,3,S*%
%TO.N,Net-(Q1-D)*%
X110920000Y-136600000D03*
%TD*%
D30*
%TO.P,Q1,1,G*%
%TO.N,Net-(Q1-G)*%
X112600000Y-97600000D03*
D31*
%TO.P,Q1,2,D*%
%TO.N,Net-(Q1-D)*%
X112600000Y-95060000D03*
%TO.P,Q1,3,S*%
%TO.N,GND*%
X112600000Y-92520000D03*
%TD*%
D32*
%TO.P,C7,1*%
%TO.N,+3.3VA*%
X128200000Y-109200000D03*
%TO.P,C7,2*%
%TO.N,GND*%
X128200000Y-108240000D03*
%TD*%
%TO.P,C11,1*%
%TO.N,/HSE_IN*%
X125400000Y-102800000D03*
%TO.P,C11,2*%
%TO.N,GND*%
X125400000Y-101840000D03*
%TD*%
D33*
%TO.P,U3,1,IP+*%
%TO.N,Net-(BT1-Pad2)*%
X112925000Y-119095000D03*
%TO.P,U3,2,IP+*%
X112925000Y-120365000D03*
%TO.P,U3,3,IP-*%
%TO.N,Net-(D2-K)*%
X112925000Y-121635000D03*
%TO.P,U3,4,IP-*%
X112925000Y-122905000D03*
%TO.P,U3,5,GND*%
%TO.N,GND*%
X117875000Y-122905000D03*
%TO.P,U3,6,FILTER*%
%TO.N,Net-(U3-FILTER)*%
X117875000Y-121635000D03*
%TO.P,U3,7,VIOUT*%
%TO.N,Net-(U3-VIOUT)*%
X117875000Y-120365000D03*
%TO.P,U3,8,VCC*%
%TO.N,VBUS*%
X117875000Y-119095000D03*
%TD*%
D32*
%TO.P,C4,1*%
%TO.N,+3.3V*%
X127600000Y-103160000D03*
%TO.P,C4,2*%
%TO.N,GND*%
X127600000Y-102200000D03*
%TD*%
D15*
%TO.P,C15,1*%
%TO.N,/ADC2_IN*%
X114080000Y-110200000D03*
%TO.P,C15,2*%
%TO.N,GND*%
X113120000Y-110200000D03*
%TD*%
D18*
%TO.P,R5,1*%
%TO.N,Net-(Q3-G)*%
X128800000Y-130620000D03*
%TO.P,R5,2*%
%TO.N,/IO_DISCHARGE*%
X128800000Y-129600000D03*
%TD*%
D34*
%TO.P,FB1,1*%
%TO.N,+3.3VA*%
X129300000Y-111257500D03*
%TO.P,FB1,2*%
%TO.N,+3.3V*%
X129300000Y-113082500D03*
%TD*%
D32*
%TO.P,C16,1*%
%TO.N,GND*%
X120200000Y-122800000D03*
%TO.P,C16,2*%
%TO.N,Net-(U3-FILTER)*%
X120200000Y-121840000D03*
%TD*%
D35*
%TO.P,C10,1*%
%TO.N,/NRST*%
X131880000Y-113477500D03*
%TO.P,C10,2*%
%TO.N,GND*%
X132840000Y-113477500D03*
%TD*%
D36*
%TO.P,R7,1*%
%TO.N,Net-(Q1-G)*%
X118510000Y-94400000D03*
%TO.P,R7,2*%
%TO.N,GND*%
X117490000Y-94400000D03*
%TD*%
D37*
%TO.P,D1,1,K*%
%TO.N,Net-(D1-K)*%
X155800000Y-113957500D03*
%TO.P,D1,2,A*%
%TO.N,+3.3V*%
X155800000Y-115532500D03*
%TD*%
D14*
%TO.P,R4,1*%
%TO.N,+3.3V*%
X134980000Y-96400000D03*
%TO.P,R4,2*%
%TO.N,/I2C_SDA*%
X136000000Y-96400000D03*
%TD*%
D38*
%TO.P,SW1,1,A*%
%TO.N,+3.3V*%
X155650000Y-90500000D03*
%TO.P,SW1,2,B*%
%TO.N,Net-(SW1-B)*%
X155650000Y-88000000D03*
%TO.P,SW1,3,C*%
%TO.N,GND*%
X155650000Y-85500000D03*
%TD*%
D10*
%TO.P,J4,1,Pin_1*%
%TO.N,Net-(D2-K)*%
X119675000Y-131000000D03*
D11*
%TO.P,J4,2,Pin_2*%
%TO.N,Net-(J4-Pin_2)*%
X117135000Y-131000000D03*
%TD*%
D10*
%TO.P,J2,1,Pin_1*%
%TO.N,+3.3V*%
X150620000Y-95400000D03*
D11*
%TO.P,J2,2,Pin_2*%
%TO.N,/SWDIO*%
X148080000Y-95400000D03*
%TO.P,J2,3,Pin_3*%
%TO.N,/SWCLK*%
X145540000Y-95400000D03*
%TO.P,J2,4,Pin_4*%
%TO.N,GND*%
X143000000Y-95400000D03*
%TD*%
D14*
%TO.P,R3,1*%
%TO.N,+3.3V*%
X137890000Y-96310000D03*
%TO.P,R3,2*%
%TO.N,/I2C_SCL*%
X138910000Y-96310000D03*
%TD*%
D39*
%TO.P,Y1,1,1*%
%TO.N,/HSE_IN*%
X121550000Y-102507500D03*
%TO.P,Y1,2,2*%
%TO.N,GND*%
X121550000Y-104707500D03*
%TO.P,Y1,3,3*%
%TO.N,/HSE_OUT*%
X123250000Y-104707500D03*
%TO.P,Y1,4,4*%
%TO.N,GND*%
X123250000Y-102507500D03*
%TD*%
D10*
%TO.P,J3,1,Pin_1*%
%TO.N,VBUS*%
X139000000Y-92400000D03*
D11*
%TO.P,J3,2,Pin_2*%
%TO.N,/I2C_SCL*%
X136460000Y-92400000D03*
%TO.P,J3,3,Pin_3*%
%TO.N,/I2C_SDA*%
X133920000Y-92400000D03*
%TO.P,J3,4,Pin_4*%
%TO.N,GND*%
X131380000Y-92400000D03*
%TD*%
D35*
%TO.P,C1,1*%
%TO.N,+3.3V*%
X131420000Y-98457500D03*
%TO.P,C1,2*%
%TO.N,GND*%
X132380000Y-98457500D03*
%TD*%
D15*
%TO.P,C8,1*%
%TO.N,+3.3VA*%
X127800000Y-111382500D03*
%TO.P,C8,2*%
%TO.N,GND*%
X126840000Y-111382500D03*
%TD*%
D14*
%TO.P,R16,1*%
%TO.N,Net-(U3-VIOUT)*%
X118380000Y-116400000D03*
%TO.P,R16,2*%
%TO.N,/ADC1_IN*%
X119400000Y-116400000D03*
%TD*%
D35*
%TO.P,C5,1*%
%TO.N,+3.3V*%
X131440000Y-96957500D03*
%TO.P,C5,2*%
%TO.N,GND*%
X132400000Y-96957500D03*
%TD*%
D19*
%TO.P,R13,1*%
%TO.N,+3.3V*%
X148400000Y-102490000D03*
%TO.P,R13,2*%
%TO.N,/USB_D+*%
X148400000Y-103510000D03*
%TD*%
D36*
%TO.P,R1,1*%
%TO.N,Net-(SW1-B)*%
X146220000Y-93000000D03*
%TO.P,R1,2*%
%TO.N,/BOOT0*%
X145200000Y-93000000D03*
%TD*%
D40*
%TO.P,C6,1*%
%TO.N,+3.3V*%
X125450000Y-98157500D03*
%TO.P,C6,2*%
%TO.N,GND*%
X127000000Y-98157500D03*
%TD*%
D41*
%TO.P,U2,1,GND*%
%TO.N,GND*%
X149100000Y-110807500D03*
%TO.P,U2,2,VO*%
%TO.N,+3.3V*%
X146800000Y-110807500D03*
D42*
X146800000Y-117107500D03*
D41*
%TO.P,U2,3,VI*%
%TO.N,VBUS*%
X144500000Y-110807500D03*
%TD*%
D14*
%TO.P,R2,1*%
%TO.N,Net-(D1-K)*%
X155580000Y-110200000D03*
%TO.P,R2,2*%
%TO.N,GND*%
X156600000Y-110200000D03*
%TD*%
%TO.P,R8,1*%
%TO.N,Net-(R10-Pad1)*%
X113090000Y-114200000D03*
%TO.P,R8,2*%
%TO.N,Net-(BT1-Pad2)*%
X114110000Y-114200000D03*
%TD*%
D43*
%TO.P,SW2,1,1*%
%TO.N,Net-(U1-PB10)*%
X147925000Y-130200000D03*
X147925000Y-124200000D03*
%TO.P,SW2,2,2*%
%TO.N,GND*%
X151675000Y-130200000D03*
X151675000Y-124200000D03*
%TD*%
D23*
%TO.P,C2,1*%
%TO.N,+3.3V*%
X143300000Y-101957500D03*
%TO.P,C2,2*%
%TO.N,GND*%
X143300000Y-102917500D03*
%TD*%
D32*
%TO.P,C12,1*%
%TO.N,/HSE_OUT*%
X125400000Y-105200000D03*
%TO.P,C12,2*%
%TO.N,GND*%
X125400000Y-104240000D03*
%TD*%
D15*
%TO.P,C3,1*%
%TO.N,+3.3V*%
X139800000Y-113457500D03*
%TO.P,C3,2*%
%TO.N,GND*%
X138840000Y-113457500D03*
%TD*%
D44*
%TO.N,GND*%
X116400000Y-123000000D03*
X149000000Y-108000000D03*
X126000000Y-111400000D03*
X127000000Y-99200000D03*
X118000000Y-105200000D03*
X132539339Y-110352229D03*
X157400000Y-110200000D03*
X156600000Y-102400000D03*
X148600000Y-112600000D03*
X155200000Y-84000000D03*
X153800000Y-112800000D03*
X139000000Y-110400000D03*
X144200000Y-102800000D03*
X112600000Y-90800000D03*
X124600000Y-104200000D03*
X133200000Y-97000000D03*
X123000000Y-101200000D03*
X149400000Y-113000000D03*
X151600000Y-123000000D03*
X149000000Y-108800000D03*
X113000000Y-109400000D03*
%TO.N,+3.3V*%
X124735070Y-95264930D03*
X137200000Y-121000000D03*
X152200000Y-91200000D03*
X135900000Y-121000000D03*
X140249620Y-119950380D03*
X150800000Y-89800000D03*
X139330380Y-120869620D03*
X125800000Y-94200000D03*
%TO.N,VBUS*%
X131650994Y-102154974D03*
X128654310Y-97345690D03*
X140550000Y-114800000D03*
X131400000Y-119400000D03*
X138700000Y-117400000D03*
X137400000Y-117800000D03*
X137200000Y-118400000D03*
X128335070Y-98864930D03*
X132800000Y-118400000D03*
X135800000Y-118400000D03*
X139050000Y-116162829D03*
X130200000Y-100800000D03*
D45*
%TO.N,Net-(Q1-D)*%
X108800000Y-121165000D03*
X108800000Y-119565000D03*
%TD*%
D46*
%TO.N,Net-(BT1-Pad2)*%
X112925000Y-120365000D02*
X101425000Y-120365000D01*
X101425000Y-120365000D02*
X94800000Y-113740000D01*
%TO.N,Net-(Q1-D)*%
X94800000Y-99339999D02*
X94800000Y-111200000D01*
%TO.N,GND*%
X155650000Y-84450000D02*
X155200000Y-84000000D01*
X123250000Y-101450000D02*
X123000000Y-101200000D01*
X123917500Y-101840000D02*
X125400000Y-101840000D01*
X118850000Y-105312500D02*
X118112500Y-105312500D01*
D47*
X132550000Y-113187500D02*
X132840000Y-113477500D01*
X139050000Y-111632500D02*
X139050000Y-110450000D01*
X132550000Y-111632500D02*
X132550000Y-110362890D01*
D46*
X115610000Y-92520000D02*
X117490000Y-94400000D01*
X110530000Y-107610000D02*
X113120000Y-110200000D01*
X112600000Y-92520000D02*
X115610000Y-92520000D01*
X110530000Y-105800000D02*
X110530000Y-107610000D01*
X151675000Y-124200000D02*
X151675000Y-123075000D01*
X120200000Y-122800000D02*
X117980000Y-122800000D01*
D47*
X130125000Y-107707500D02*
X128732500Y-107707500D01*
X133157500Y-96957500D02*
X133200000Y-97000000D01*
X124640000Y-104240000D02*
X124600000Y-104200000D01*
D46*
X151675000Y-130200000D02*
X151675000Y-124200000D01*
X118112500Y-105312500D02*
X118000000Y-105200000D01*
D47*
X127000000Y-98157500D02*
X127000000Y-99200000D01*
X139050000Y-110450000D02*
X139000000Y-110400000D01*
X156600000Y-110200000D02*
X157400000Y-110200000D01*
X132550000Y-110362890D02*
X132539339Y-110352229D01*
X155545000Y-102305000D02*
X156505000Y-102305000D01*
D46*
X127890001Y-108240000D02*
X128200000Y-108240000D01*
X155650000Y-85500000D02*
X155650000Y-84450000D01*
X117980000Y-122800000D02*
X117875000Y-122905000D01*
D47*
X143300000Y-102917500D02*
X144082500Y-102917500D01*
D46*
X126840000Y-111382500D02*
X126840000Y-109290001D01*
X126840000Y-109290001D02*
X127890001Y-108240000D01*
D47*
X132380000Y-96977500D02*
X132400000Y-96957500D01*
X127600000Y-98757500D02*
X127000000Y-98157500D01*
X132380000Y-98457500D02*
X132380000Y-96977500D01*
D46*
X123250000Y-102507500D02*
X123917500Y-101840000D01*
X113120000Y-110200000D02*
X113120000Y-109520000D01*
D47*
X132400000Y-96957500D02*
X133157500Y-96957500D01*
X132550000Y-111632500D02*
X132550000Y-113187500D01*
X132400000Y-98437500D02*
X132380000Y-98457500D01*
X141475000Y-102707500D02*
X143090000Y-102707500D01*
D46*
X126840000Y-113800000D02*
X126840000Y-111382500D01*
D47*
X128732500Y-107707500D02*
X128200000Y-108240000D01*
D46*
X112600000Y-92520000D02*
X112600000Y-90800000D01*
D47*
X127572500Y-102227500D02*
X127600000Y-102200000D01*
X144082500Y-102917500D02*
X144200000Y-102800000D01*
D46*
X126840000Y-111382500D02*
X126017500Y-111382500D01*
D47*
X125427500Y-104212500D02*
X125400000Y-104240000D01*
D46*
X126017500Y-111382500D02*
X126000000Y-111400000D01*
D47*
X132550000Y-100282500D02*
X132550000Y-98627500D01*
X127600000Y-102200000D02*
X127600000Y-98757500D01*
X132550000Y-98627500D02*
X132380000Y-98457500D01*
X139050000Y-111632500D02*
X139050000Y-113247500D01*
X156505000Y-102305000D02*
X156600000Y-102400000D01*
D46*
X120945000Y-105312500D02*
X121550000Y-104707500D01*
D47*
X139050000Y-113247500D02*
X138840000Y-113457500D01*
D46*
X117875000Y-122905000D02*
X116495000Y-122905000D01*
X116495000Y-122905000D02*
X116400000Y-123000000D01*
X118850000Y-105312500D02*
X120945000Y-105312500D01*
X113120000Y-109520000D02*
X113000000Y-109400000D01*
X151675000Y-123075000D02*
X151600000Y-123000000D01*
D47*
X125400000Y-104240000D02*
X124640000Y-104240000D01*
X143090000Y-102707500D02*
X143300000Y-102917500D01*
D46*
X123250000Y-102507500D02*
X123250000Y-101450000D01*
%TO.N,+3.3V*%
X154200000Y-118600000D02*
X154200000Y-119800000D01*
X150620000Y-100270000D02*
X148400000Y-102490000D01*
X153420000Y-92600000D02*
X150620000Y-95400000D01*
X139330380Y-120869620D02*
X139200000Y-121000000D01*
D47*
X139550000Y-113207500D02*
X139800000Y-113457500D01*
X143300000Y-101957500D02*
X141725000Y-101957500D01*
D46*
X141800000Y-120000000D02*
X141800000Y-121400000D01*
D47*
X139550000Y-110754380D02*
X139550000Y-111632500D01*
D46*
X152300000Y-114907500D02*
X154200000Y-114907500D01*
X147557500Y-101957500D02*
X143300000Y-101957500D01*
X154200000Y-118600000D02*
X155400000Y-118600000D01*
D47*
X127600000Y-103160000D02*
X127290001Y-103160000D01*
X127290001Y-103160000D02*
X126200000Y-102069999D01*
X129246880Y-102207500D02*
X128294380Y-103160000D01*
D46*
X155175000Y-114907500D02*
X155800000Y-115532500D01*
D47*
X133470000Y-112930620D02*
X133470000Y-113930000D01*
D46*
X150800000Y-89800000D02*
X130200000Y-89800000D01*
D47*
X133470000Y-113930000D02*
X130500000Y-116900000D01*
X131440000Y-96957500D02*
X131440000Y-96647501D01*
X126200000Y-102069999D02*
X126200000Y-99600000D01*
D46*
X128457500Y-113800000D02*
X129300000Y-112957500D01*
D47*
X131440000Y-96647501D02*
X131790001Y-96297500D01*
D46*
X154200000Y-119800000D02*
X142800000Y-119800000D01*
D47*
X131440000Y-98437500D02*
X131420000Y-98457500D01*
D46*
X153600000Y-92600000D02*
X153600000Y-92550000D01*
X139800000Y-116400000D02*
X139800000Y-113457500D01*
X139200000Y-121000000D02*
X137150000Y-121000000D01*
D47*
X115235000Y-99600000D02*
X109260000Y-105575000D01*
D46*
X141800000Y-120000000D02*
X140299240Y-120000000D01*
X154200000Y-114907500D02*
X155175000Y-114907500D01*
D47*
X130125000Y-102207500D02*
X129246880Y-102207500D01*
X133050000Y-112510620D02*
X133470000Y-112930620D01*
X127600000Y-103160000D02*
X128294380Y-103160000D01*
D46*
X158000000Y-108000000D02*
X158000000Y-96800000D01*
D47*
X130500000Y-116900000D02*
X130100000Y-116900000D01*
D46*
X153800000Y-92600000D02*
X153600000Y-92600000D01*
D47*
X132050000Y-100282500D02*
X131420000Y-99652500D01*
D46*
X148400000Y-102490000D02*
X148090000Y-102490000D01*
X155400000Y-118600000D02*
X158600000Y-115400000D01*
D47*
X132050000Y-100282500D02*
X132050000Y-99450000D01*
X139550000Y-113407500D02*
X139600000Y-113457500D01*
D46*
X158600000Y-109400000D02*
X157600000Y-108400000D01*
X157600000Y-108400000D02*
X158000000Y-108000000D01*
X150620000Y-95400000D02*
X150620000Y-100270000D01*
D47*
X133050000Y-111632500D02*
X133050000Y-112510620D01*
D46*
X142800000Y-119800000D02*
X142000000Y-119800000D01*
X148090000Y-102490000D02*
X147557500Y-101957500D01*
D47*
X126200000Y-99600000D02*
X115235000Y-99600000D01*
X131420000Y-98457500D02*
X131420000Y-96977500D01*
D46*
X154200000Y-114907500D02*
X154200000Y-118600000D01*
X140299240Y-120000000D02*
X140249620Y-119950380D01*
D47*
X134877500Y-96297500D02*
X134980000Y-96400000D01*
X126200000Y-99600000D02*
X126200000Y-98907500D01*
D46*
X130100000Y-116900000D02*
X127800000Y-114600000D01*
X127800000Y-113800000D02*
X128457500Y-113800000D01*
D47*
X131420000Y-99652500D02*
X131420000Y-98457500D01*
X139550000Y-111632500D02*
X139550000Y-113207500D01*
X139550000Y-111632500D02*
X139699999Y-111482501D01*
D46*
X142800000Y-119400000D02*
X139800000Y-116400000D01*
X124735070Y-95264930D02*
X124735070Y-97442570D01*
D47*
X131790001Y-96297500D02*
X134877500Y-96297500D01*
D46*
X127800000Y-114600000D02*
X127800000Y-113800000D01*
X153600000Y-92550000D02*
X155650000Y-90500000D01*
X135900000Y-121000000D02*
X134200000Y-121000000D01*
X158600000Y-115400000D02*
X158600000Y-109400000D01*
X124735070Y-97442570D02*
X125450000Y-98157500D01*
X153600000Y-92600000D02*
X152200000Y-91200000D01*
D47*
X126200000Y-98907500D02*
X125450000Y-98157500D01*
X141725000Y-101957500D02*
X141475000Y-102207500D01*
D46*
X142800000Y-119800000D02*
X142800000Y-119400000D01*
D47*
X109260000Y-105575000D02*
X109260000Y-105800000D01*
D46*
X134200000Y-121000000D02*
X130100000Y-116900000D01*
X153600000Y-92600000D02*
X153420000Y-92600000D01*
X158000000Y-96800000D02*
X153800000Y-92600000D01*
D47*
X131420000Y-96977500D02*
X131440000Y-96957500D01*
X130125000Y-102207500D02*
X131003120Y-102207500D01*
D46*
X137150000Y-121000000D02*
X137200000Y-121000000D01*
X130200000Y-89800000D02*
X125800000Y-94200000D01*
X142000000Y-119800000D02*
X141800000Y-120000000D01*
D47*
X133050000Y-110754380D02*
X133050000Y-111632500D01*
%TO.N,+3.3VA*%
X128246846Y-109200000D02*
X129239346Y-108207500D01*
X128200000Y-109200000D02*
X128246846Y-109200000D01*
X129239346Y-108207500D02*
X130125000Y-108207500D01*
X128200000Y-110982500D02*
X127800000Y-111382500D01*
X127800000Y-111382500D02*
X129300000Y-111382500D01*
X128200000Y-109200000D02*
X128200000Y-110982500D01*
%TO.N,/NRST*%
X131000000Y-110800000D02*
X131000000Y-113000000D01*
X131400000Y-110400000D02*
X131000000Y-110800000D01*
X130125000Y-105207500D02*
X131003120Y-105207500D01*
X131400000Y-105604380D02*
X131400000Y-110400000D01*
X131003120Y-105207500D02*
X131400000Y-105604380D01*
X131477500Y-113477500D02*
X131880000Y-113477500D01*
X131000000Y-113000000D02*
X131477500Y-113477500D01*
%TO.N,/HSE_IN*%
X126600000Y-104000000D02*
X125400000Y-102800000D01*
X125200000Y-102800000D02*
X124442500Y-103557500D01*
X128600000Y-104000000D02*
X126600000Y-104000000D01*
X121550000Y-103150000D02*
X121550000Y-102507500D01*
X121957500Y-103557500D02*
X121550000Y-103150000D01*
X130125000Y-104207500D02*
X128807500Y-104207500D01*
X128807500Y-104207500D02*
X128600000Y-104000000D01*
X124442500Y-103557500D02*
X121957500Y-103557500D01*
X125400000Y-102800000D02*
X125200000Y-102800000D01*
%TO.N,/HSE_OUT*%
X123742500Y-105200000D02*
X123250000Y-104707500D01*
X130125000Y-104707500D02*
X129092500Y-104707500D01*
X129092500Y-104707500D02*
X128600000Y-105200000D01*
X125400000Y-105200000D02*
X123742500Y-105200000D01*
X128600000Y-105200000D02*
X125400000Y-105200000D01*
D46*
%TO.N,VBUS*%
X137400000Y-117800000D02*
X137400000Y-118200000D01*
X139050000Y-116162829D02*
X139050000Y-117050000D01*
X129880000Y-119400000D02*
X123080000Y-126200000D01*
X131696020Y-102200000D02*
X131650994Y-102154974D01*
X131400000Y-119400000D02*
X129880000Y-119400000D01*
X135800000Y-118400000D02*
X132800000Y-118400000D01*
X118849999Y-119095000D02*
X117875000Y-119095000D01*
X128654310Y-97345690D02*
X128654310Y-93287212D01*
X142553750Y-112753750D02*
X140550000Y-114757500D01*
X139050000Y-117050000D02*
X138700000Y-117400000D01*
X142553750Y-112753750D02*
X132000000Y-102200000D01*
X123080000Y-123325001D02*
X118849999Y-119095000D01*
X137400000Y-118200000D02*
X137200000Y-118400000D01*
X130200000Y-100800000D02*
X130200000Y-100729860D01*
X123080000Y-126200000D02*
X123080000Y-123325001D01*
X130200000Y-100729860D02*
X128335070Y-98864930D01*
X132000000Y-102200000D02*
X131696020Y-102200000D01*
X140550000Y-114757500D02*
X140550000Y-114800000D01*
X144500000Y-110807500D02*
X142553750Y-112753750D01*
X130941522Y-91000000D02*
X137600000Y-91000000D01*
X137600000Y-91000000D02*
X139000000Y-92400000D01*
X128654310Y-93287212D02*
X130941522Y-91000000D01*
%TO.N,Net-(R10-Pad1)*%
X113060000Y-114170000D02*
X113090000Y-114200000D01*
X113060000Y-111600000D02*
X109200000Y-111600000D01*
X113060000Y-111600000D02*
X113060000Y-114170000D01*
X113090000Y-111630000D02*
X113060000Y-111600000D01*
X113060000Y-111468944D02*
X113060000Y-111600000D01*
X109200000Y-111600000D02*
X108800000Y-112000000D01*
%TO.N,Net-(U3-FILTER)*%
X120200000Y-121840000D02*
X118080000Y-121840000D01*
X118080000Y-121840000D02*
X117875000Y-121635000D01*
%TO.N,Net-(D1-K)*%
X155800000Y-110420000D02*
X155580000Y-110200000D01*
X155800000Y-113957500D02*
X155800000Y-110420000D01*
%TO.N,Net-(D2-K)*%
X112920000Y-126200000D02*
X112920000Y-122910000D01*
X112925000Y-122905000D02*
X112925000Y-121635000D01*
X114875000Y-126200000D02*
X112920000Y-126200000D01*
X119675000Y-131000000D02*
X114875000Y-126200000D01*
X112920000Y-122910000D02*
X112925000Y-122905000D01*
%TO.N,Net-(U4-OUT)*%
X112317500Y-105282500D02*
X116250000Y-105282500D01*
X111800000Y-105800000D02*
X112317500Y-105282500D01*
D48*
%TO.N,/USB_D-*%
X141585000Y-104097500D02*
X142373214Y-104097500D01*
X147980928Y-103945000D02*
X148055928Y-104020000D01*
X142373214Y-104097500D02*
X142525714Y-103945000D01*
X141475000Y-104207500D02*
X141525000Y-104157500D01*
X154655000Y-104070000D02*
X155360000Y-104070000D01*
X148744072Y-104020000D02*
X148819072Y-103945000D01*
X141475000Y-104207500D02*
X141585000Y-104097500D01*
X142525714Y-103945000D02*
X147980928Y-103945000D01*
X148819072Y-103945000D02*
X154655000Y-103945000D01*
X154655000Y-103945000D02*
X154655000Y-104070000D01*
X155360000Y-104070000D02*
X155545000Y-104255000D01*
X148055928Y-104020000D02*
X148744072Y-104020000D01*
%TO.N,/USB_D+*%
X142384910Y-103605000D02*
X155545000Y-103605000D01*
X141475000Y-103707500D02*
X141494167Y-103707500D01*
X141494167Y-103707500D02*
X141544167Y-103657500D01*
X141544167Y-103657500D02*
X142332410Y-103657500D01*
X142332410Y-103657500D02*
X142384910Y-103605000D01*
D47*
%TO.N,/SWCLK*%
X140800000Y-97800000D02*
X139550000Y-99050000D01*
X145540000Y-95460000D02*
X143200000Y-97800000D01*
X145540000Y-95400000D02*
X145540000Y-95460000D01*
X143200000Y-97800000D02*
X140800000Y-97800000D01*
X139550000Y-99050000D02*
X139550000Y-100282500D01*
%TO.N,/SWDIO*%
X140200000Y-101800000D02*
X145400000Y-96600000D01*
X146880000Y-96600000D02*
X148080000Y-95400000D01*
X145400000Y-96600000D02*
X146880000Y-96600000D01*
X140596880Y-103207500D02*
X140200000Y-102810620D01*
X140200000Y-102810620D02*
X140200000Y-101800000D01*
X141475000Y-103207500D02*
X140596880Y-103207500D01*
D46*
%TO.N,Net-(J4-Pin_2)*%
X113460000Y-136600000D02*
X113460000Y-134675000D01*
X113460000Y-134675000D02*
X117135000Y-131000000D01*
%TO.N,Net-(Q1-G)*%
X115629999Y-97600000D02*
X118510000Y-94719999D01*
X112600000Y-97600000D02*
X115629999Y-97600000D01*
X118510000Y-94719999D02*
X118510000Y-94400000D01*
X118510000Y-94400000D02*
X120490000Y-94400000D01*
%TO.N,Net-(Q3-G)*%
X116710000Y-135890000D02*
X126200000Y-135890000D01*
X126200000Y-135890000D02*
X126200000Y-135400000D01*
X116000000Y-136600000D02*
X116710000Y-135890000D01*
X126200000Y-135400000D02*
X128800000Y-132800000D01*
X128800000Y-132800000D02*
X128800000Y-130620000D01*
%TO.N,Net-(SW1-B)*%
X153850000Y-88000000D02*
X155650000Y-88000000D01*
X146220000Y-93000000D02*
X148850000Y-93000000D01*
X148850000Y-93000000D02*
X153850000Y-88000000D01*
D47*
%TO.N,/BOOT0*%
X134050000Y-99404380D02*
X134654380Y-98800000D01*
X143600000Y-93000000D02*
X145200000Y-93000000D01*
X134050000Y-100282500D02*
X134050000Y-99404380D01*
X137800000Y-98800000D02*
X143600000Y-93000000D01*
X134654380Y-98800000D02*
X137800000Y-98800000D01*
%TO.N,/I2C_SCL*%
X138910000Y-94850000D02*
X136460000Y-92400000D01*
X138910000Y-96310000D02*
X138910000Y-94850000D01*
X133600000Y-98300000D02*
X134900000Y-98300000D01*
X136000000Y-97200000D02*
X138020000Y-97200000D01*
X134900000Y-98300000D02*
X136000000Y-97200000D01*
X138020000Y-97200000D02*
X138910000Y-96310000D01*
X133550000Y-98350000D02*
X133600000Y-98300000D01*
X133550000Y-100282500D02*
X133550000Y-98350000D01*
%TO.N,/I2C_SDA*%
X134600000Y-97800000D02*
X136000000Y-96400000D01*
X133050000Y-97850000D02*
X133000000Y-97800000D01*
X133000000Y-97800000D02*
X134600000Y-97800000D01*
X133050000Y-100282500D02*
X133050000Y-97850000D01*
X136000000Y-94480000D02*
X133920000Y-92400000D01*
X136000000Y-96400000D02*
X136000000Y-94480000D01*
%TO.N,/ADC1_IN*%
X130125000Y-107207500D02*
X122192500Y-107207500D01*
X119400000Y-110000000D02*
X119400000Y-114410000D01*
X122192500Y-107207500D02*
X119400000Y-110000000D01*
D46*
X119400000Y-116400000D02*
X119400000Y-114410000D01*
D47*
%TO.N,Net-(U1-PB10)*%
X140780000Y-121400000D02*
X143580000Y-124200000D01*
X138050000Y-118670000D02*
X140780000Y-121400000D01*
X143580000Y-124200000D02*
X147925000Y-124200000D01*
D46*
X147925000Y-130200000D02*
X147925000Y-124200000D01*
D47*
X138050000Y-111632500D02*
X138050000Y-118670000D01*
%TO.N,/ADC3_IN*%
X116280000Y-106272500D02*
X116250000Y-106302500D01*
X118922500Y-106200000D02*
X118850000Y-106272500D01*
X130125000Y-106207500D02*
X118915000Y-106207500D01*
X118850000Y-106272500D02*
X116280000Y-106272500D01*
X118915000Y-106207500D02*
X118850000Y-106272500D01*
%TO.N,/ADC2_IN*%
X121292500Y-106707500D02*
X117800000Y-110200000D01*
D46*
X114080000Y-111600000D02*
X114080000Y-110200000D01*
D47*
X117800000Y-110200000D02*
X114080000Y-110200000D01*
X130125000Y-106707500D02*
X121292500Y-106707500D01*
%TO.N,/IO_DISCHARGE*%
X128800000Y-129600000D02*
X136550000Y-121850000D01*
X136550000Y-121850000D02*
X136550000Y-111632500D01*
%TO.N,/IO_CHARGE*%
X134110620Y-101600000D02*
X134550000Y-101160620D01*
X121510000Y-94400000D02*
X124789380Y-94400000D01*
X131989380Y-101600000D02*
X134110620Y-101600000D01*
X124789380Y-94400000D02*
X131989380Y-101600000D01*
X134550000Y-101160620D02*
X134550000Y-100282500D01*
D46*
%TO.N,Net-(BT1-Pad2)*%
X112925000Y-119095000D02*
X112925000Y-118875000D01*
X112925000Y-120365000D02*
X112925000Y-119095000D01*
X114110000Y-114200000D02*
X114110000Y-117910000D01*
X114290000Y-114200000D02*
X114110000Y-114200000D01*
X114110000Y-117910000D02*
X112925000Y-119095000D01*
%TO.N,Net-(Q1-D)*%
X125060000Y-138050000D02*
X126200000Y-136910000D01*
X108800000Y-133800000D02*
X110920000Y-135920000D01*
X112600000Y-95060000D02*
X94860000Y-95060000D01*
X108800000Y-113020000D02*
X108800000Y-119565000D01*
X94860000Y-95060000D02*
X94800000Y-95000000D01*
X108480001Y-113020000D02*
X94800000Y-99339999D01*
X94800000Y-99339999D02*
X94800000Y-95000000D01*
X108800000Y-113020000D02*
X108480001Y-113020000D01*
X110920000Y-135920000D02*
X110920000Y-136600000D01*
X108800000Y-121165000D02*
X108800000Y-133800000D01*
X110920000Y-136600000D02*
X112370000Y-138050000D01*
X112370000Y-138050000D02*
X125060000Y-138050000D01*
D47*
%TO.N,Net-(U3-VIOUT)*%
X118380000Y-116400000D02*
X118380000Y-114410000D01*
X116200000Y-120000000D02*
X116200000Y-118580000D01*
X116200000Y-120000000D02*
X116565000Y-120365000D01*
X116565000Y-120365000D02*
X117875000Y-120365000D01*
X116200000Y-118580000D02*
X118380000Y-116400000D01*
%TD*%
%TA.AperFunction,Conductor*%
%TO.N,+3.3V*%
G36*
X147743039Y-109619685D02*
G01*
X147788794Y-109672489D01*
X147800000Y-109724000D01*
X147800000Y-113000000D01*
X149200000Y-115400000D01*
X150966417Y-114026119D01*
X151031420Y-114000500D01*
X151042546Y-114000000D01*
X153476000Y-114000000D01*
X153543039Y-114019685D01*
X153588794Y-114072489D01*
X153600000Y-114124000D01*
X153600000Y-115676000D01*
X153580315Y-115743039D01*
X153527511Y-115788794D01*
X153476000Y-115800000D01*
X151000000Y-115800000D01*
X151000000Y-116962456D01*
X150980315Y-117029495D01*
X150979174Y-117031239D01*
X149836811Y-118744783D01*
X149783246Y-118789644D01*
X149733637Y-118800000D01*
X145258078Y-118800000D01*
X145191039Y-118780315D01*
X145162819Y-118755383D01*
X144228741Y-117634489D01*
X144200945Y-117570386D01*
X144200000Y-117555106D01*
X144200000Y-116268726D01*
X144219685Y-116201687D01*
X144258277Y-116163576D01*
X145800000Y-115200000D01*
X145800000Y-109724000D01*
X145819685Y-109656961D01*
X145872489Y-109611206D01*
X145924000Y-109600000D01*
X147676000Y-109600000D01*
X147743039Y-109619685D01*
G37*
%TD.AperFunction*%
%TD*%
%TA.AperFunction,Conductor*%
%TO.N,VBUS*%
G36*
X146768969Y-107086753D02*
G01*
X146800272Y-107149218D01*
X146801637Y-107183628D01*
X146607485Y-109125146D01*
X146581227Y-109189895D01*
X146530152Y-109227939D01*
X146385922Y-109285631D01*
X146339870Y-109294500D01*
X145924000Y-109294500D01*
X145923991Y-109294500D01*
X145923990Y-109294501D01*
X145859064Y-109301481D01*
X145859052Y-109301483D01*
X145807546Y-109312688D01*
X145769345Y-109323644D01*
X145769341Y-109323646D01*
X145672431Y-109380323D01*
X145672428Y-109380325D01*
X145619623Y-109426081D01*
X145619612Y-109426091D01*
X145577451Y-109470807D01*
X145577445Y-109470816D01*
X145526560Y-109570890D01*
X145506877Y-109637921D01*
X145494500Y-109724002D01*
X145494500Y-111876000D01*
X145474815Y-111943039D01*
X145422011Y-111988794D01*
X145370500Y-112000000D01*
X143324000Y-112000000D01*
X143256961Y-111980315D01*
X143211206Y-111927511D01*
X143200000Y-111876000D01*
X143200000Y-109889374D01*
X143219685Y-109822335D01*
X143272489Y-109776580D01*
X143284782Y-109771739D01*
X145000000Y-109200000D01*
X145000000Y-107689374D01*
X145019685Y-107622335D01*
X145072489Y-107576580D01*
X145084782Y-107571739D01*
X146639041Y-107053652D01*
X146708864Y-107051128D01*
X146768969Y-107086753D01*
G37*
%TD.AperFunction*%
%TA.AperFunction,Conductor*%
G36*
X154608327Y-104619685D02*
G01*
X154634353Y-104644955D01*
X154634669Y-104644640D01*
X154642794Y-104652765D01*
X154722235Y-104732206D01*
X154825009Y-104777585D01*
X154850135Y-104780500D01*
X156239864Y-104780499D01*
X156239879Y-104780497D01*
X156239882Y-104780497D01*
X156264987Y-104777586D01*
X156264988Y-104777585D01*
X156264991Y-104777585D01*
X156367765Y-104732206D01*
X156388319Y-104711652D01*
X156449642Y-104678167D01*
X156519334Y-104683151D01*
X156575267Y-104725023D01*
X156599684Y-104790487D01*
X156600000Y-104799333D01*
X156600000Y-105098749D01*
X156580315Y-105165788D01*
X156527511Y-105211543D01*
X156500795Y-105220245D01*
X147267834Y-107104523D01*
X147198212Y-107098641D01*
X147142823Y-107056053D01*
X147119251Y-106990279D01*
X147134981Y-106922203D01*
X147185019Y-106873438D01*
X147203816Y-106865394D01*
X153980911Y-104606363D01*
X154020123Y-104600000D01*
X154541288Y-104600000D01*
X154608327Y-104619685D01*
G37*
%TD.AperFunction*%
%TD*%
%TA.AperFunction,Conductor*%
%TO.N,GND*%
G36*
X149568395Y-107419685D02*
G01*
X149614150Y-107472489D01*
X149622180Y-107496115D01*
X150136306Y-109723990D01*
X150196825Y-109986241D01*
X150200000Y-110014124D01*
X150200000Y-111800000D01*
X151200000Y-112200000D01*
X154076000Y-112200000D01*
X154143039Y-112219685D01*
X154188794Y-112272489D01*
X154200000Y-112324000D01*
X154200000Y-113476000D01*
X154180315Y-113543039D01*
X154127511Y-113588794D01*
X154076000Y-113600000D01*
X148866363Y-113600000D01*
X148799324Y-113580315D01*
X148763189Y-113544783D01*
X148126326Y-112589489D01*
X148105518Y-112522790D01*
X148105500Y-112520706D01*
X148105500Y-109724010D01*
X148105500Y-109724000D01*
X148098518Y-109659059D01*
X148087312Y-109607548D01*
X148076354Y-109569342D01*
X148019675Y-109472429D01*
X147973920Y-109419625D01*
X147973918Y-109419623D01*
X147973908Y-109419612D01*
X147929192Y-109377451D01*
X147929189Y-109377449D01*
X147929187Y-109377447D01*
X147829111Y-109326561D01*
X147829110Y-109326560D01*
X147829109Y-109326560D01*
X147762078Y-109306877D01*
X147762072Y-109306876D01*
X147676000Y-109294500D01*
X147675997Y-109294500D01*
X147260130Y-109294500D01*
X147214078Y-109285631D01*
X147077948Y-109231179D01*
X147023014Y-109188005D01*
X147000142Y-109121984D01*
X147000000Y-109116048D01*
X147000000Y-108276417D01*
X147000615Y-108264079D01*
X147047843Y-107791790D01*
X147074100Y-107727047D01*
X147083521Y-107716478D01*
X147363683Y-107436316D01*
X147425004Y-107402834D01*
X147451362Y-107400000D01*
X149501356Y-107400000D01*
X149568395Y-107419685D01*
G37*
%TD.AperFunction*%
%TD*%
M02*
