M48
; DRILL file {KiCad 8.0.8} date 2025-03-16T20:58:09+1100
; FORMAT={-:-/ absolute / metric / decimal}
; #@! TF.CreationDate,2025-03-16T20:58:09+11:00
; #@! TF.GenerationSoftware,Kicad,Pcbnew,8.0.8
; #@! TF.FileFunction,MixedPlating,1,2
FMAT,2
METRIC
; #@! TA.AperFunction,Plated,PTH,ViaDrill
T1C0.300
; #@! TA.AperFunction,Plated,PTH,ComponentDrill
T2C0.550
; #@! TA.AperFunction,Plated,PTH,ComponentDrill
T3C0.750
; #@! TA.AperFunction,Plated,PTH,ComponentDrill
T4C0.850
; #@! TA.AperFunction,Plated,PTH,ComponentDrill
T5C1.000
; #@! TA.AperFunction,Plated,PTH,ComponentDrill
T6C1.100
; #@! TA.AperFunction,NonPlated,NPTH,ComponentDrill
T7C0.800
; #@! TA.AperFunction,NonPlated,NPTH,ComponentDrill
T8C0.900
; #@! TA.AperFunction,NonPlated,NPTH,ComponentDrill
T9C2.200
; #@! TA.AperFunction,NonPlated,NPTH,ComponentDrill
T10C2.400
%
G90
G05
T1
X108.8Y-119.565
X108.8Y-121.165
X112.6Y-90.8
X113.0Y-109.4
X116.4Y-123.0
X118.0Y-105.2
X123.0Y-101.2
X124.6Y-104.2
X124.735Y-95.265
X125.8Y-94.2
X126.0Y-111.4
X127.0Y-99.2
X128.335Y-98.865
X128.654Y-97.346
X130.2Y-100.8
X131.4Y-119.4
X131.651Y-102.155
X132.539Y-110.352
X132.8Y-118.4
X133.2Y-97.0
X135.8Y-118.4
X135.9Y-121.0
X137.2Y-118.4
X137.2Y-121.0
X137.4Y-117.8
X138.7Y-117.4
X139.0Y-110.4
X139.05Y-116.163
X139.33Y-120.87
X140.25Y-119.95
X140.55Y-114.8
X144.2Y-102.8
X148.6Y-112.6
X149.0Y-108.0
X149.0Y-108.8
X149.4Y-113.0
X150.8Y-89.8
X151.6Y-123.0
X152.2Y-91.2
X153.8Y-112.8
X155.2Y-84.0
X156.6Y-102.4
X157.4Y-110.2
T3
X109.26Y-105.8
X110.53Y-105.8
X111.8Y-105.8
T5
X117.135Y-131.0
X119.675Y-131.0
X131.38Y-92.4
X133.92Y-92.4
X136.46Y-92.4
X139.0Y-92.4
X143.0Y-95.4
X145.54Y-95.4
X148.08Y-95.4
X150.62Y-95.4
T6
X110.92Y-136.6
X112.6Y-92.52
X112.6Y-95.06
X112.6Y-97.6
X112.92Y-126.2
X113.46Y-136.6
X116.0Y-136.6
X123.08Y-126.2
T7
X156.645Y-101.105
X156.645Y-106.105
T8
X158.4Y-84.6
X158.4Y-91.4
T9
X70.8Y-65.2
X70.8Y-156.4
X157.2Y-156.4
X157.4Y-65.2
T10
X80.0Y-146.04
T2
G00X159.07Y-99.73
M15
G01X159.72Y-99.73
M16
G05
G00X159.07Y-107.48
M15
G01X159.72Y-107.48
M16
G05
T4
G00X155.32Y-99.88
M15
G01X155.87Y-99.88
M16
G05
G00X155.32Y-107.33
M15
G01X155.87Y-107.33
M16
G05
M30
